<svg fill="#098ee1" version="1.1" id="Capa_1" xmlns="http://www.w3.org/2000/svg" xmlns:xlink="http://www.w3.org/1999/xlink" viewBox="0 0 800.00 800.00" xml:space="preserve" stroke="#098ee1" stroke-width="8" transform="matrix(-1, 0, 0, 1, 0, 0)"><g id="SVGRepo_bgCarrier" stroke-width="0"></g><g id="SVGRepo_tracerCarrier" stroke-linecap="round" stroke-linejoin="round" stroke="#CCCCCC" stroke-width="3.2"></g><g id="SVGRepo_iconCarrier"> <g> <path d="M510.071,84.867c0-46.878,38.15-84.867,85.2-84.867c47.025,0,85.199,37.989,85.199,84.867 c0,46.92-38.174,84.887-85.199,84.887C548.222,169.753,510.071,131.787,510.071,84.867z M12.197,558.226h35.721v0.195h112.564 v-0.195h38.823c10.092,0,13.151-6.411,6.857-14.302l-88.889-110.379c-6.336-7.867-16.71-7.867-23.025,0L5.339,543.924 C-1.02,551.812,2.084,558.226,12.197,558.226z M800,800H0v-91.972h47.918V606.449h112.564v101.579h78.017V399.946h112.587v308.082 h143.598l20.529-289.305c0.088-1.046,0.369-2,0.521-3.045c2.432-56.265,5.145-111.356,6.685-141.739 c-21.333,28.992-34.353,77.673-37.65,142.936c-0.782,16.017-14.086,28.448-29.991,28.448c-0.499,0-1.021,0-1.541-0.042 c-16.559-0.827-29.342-14.91-28.494-31.429c2.214-44.248,8.073-89.516,24.587-130.96c5.426-13.669,12.132-26.86,20.422-39.032 c5.707-8.432,12.023-16.125,19.293-23.341c10.311-10.193,22.07-19.495,34.896-26.643c5.575-3.131,11.502-5.652,17.532-7.738 c14.736-5.063,30.317-7.519,45.855-8.04l-27.561,230.364l36.284,37.077l31.728-37.077l-21.96-230.018 c14.387,0.956,28.774,3.608,42.446,8.259c5.988,2.021,11.871,4.455,17.403,7.475c8.116,4.39,15.994,9.955,23.286,15.584 c47.461,36.597,72.549,105.554,74.588,204.981c0.348,16.538-12.826,30.229-30.034,30.578c-16.318,0-29.71-12.997-30.057-29.339 c-1.325-64.809-13.606-112.967-35.373-142.001c3.233,39.4,8.854,111.879,10.59,160.864c0.325,1.695,0.759,3.348,0.847,5.13 l17.427,268.051H800V800z M572.788,708.028h46.049l-13.8-212.502c-2.91-0.37-5.753-0.913-8.747-0.913 c-2.539,0-5.47,0.739-8.442,1.564L572.788,708.028z M202.735,351.699h35.764v0.196h112.587v-0.196h38.759 c10.112,0,13.173-6.411,6.879-14.278l-88.889-110.379c-6.337-7.868-16.71-7.868-23.068,0l-88.846,110.379 C189.54,345.289,192.644,351.699,202.735,351.699z"></path> </g> </g></svg>