<?xml version="1.0" encoding="UTF-8"?>
<svg version="1.1" xmlns="http://www.w3.org/2000/svg" width="256" height="256">
<path d="M0 0 C1.31246704 -0.00708481 2.62493408 -0.01416962 3.97717285 -0.02146912 C5.44018589 -0.01917508 6.9031986 -0.01666535 8.36621094 -0.01396179 C9.90018971 -0.01830684 11.4341663 -0.02348929 12.96813965 -0.02944946 C17.14160046 -0.04287214 21.3149709 -0.04341459 25.4884491 -0.04088616 C28.96782795 -0.0398188 32.44718835 -0.04469372 35.92656326 -0.04949158 C44.1317202 -0.06059779 52.33683136 -0.06101774 60.54199219 -0.05497742 C69.01831041 -0.04893364 77.4944628 -0.0612563 85.97075272 -0.08254749 C93.23871548 -0.10013502 100.50662533 -0.10616942 107.77460861 -0.10290974 C112.11968237 -0.10109239 116.46463781 -0.10377792 120.80969238 -0.11762428 C124.89399355 -0.13015209 128.97803521 -0.12830683 133.06233215 -0.11521339 C134.56439805 -0.11283709 136.06648192 -0.11561975 137.56852722 -0.12383652 C139.61271865 -0.13421586 141.65698329 -0.1244503 143.70117188 -0.11352539 C144.8471283 -0.11369313 145.99308472 -0.11386087 147.17376709 -0.1140337 C148.05711731 0.00962724 148.94046753 0.13328817 149.85058594 0.26069641 C151.96489743 3.43216366 152.10118593 4.1896796 152.10455322 7.81526184 C152.1130127 9.21590126 152.1130127 9.21590126 152.12164307 10.64483643 C152.11557037 12.17848595 152.11557037 12.17848595 152.109375 13.74311829 C152.11463196 15.36051659 152.11463196 15.36051659 152.11999512 17.0105896 C152.12881538 20.58360688 152.12296214 24.15642702 152.11621094 27.72944641 C152.1175575 30.20661965 152.11949796 32.68379263 152.12200928 35.16096497 C152.12533935 41.02220277 152.11832799 46.88336873 152.10770774 52.744596 C152.10019833 57.42137862 152.10285403 62.09807708 152.11132812 66.77485657 C152.1229013 73.21682176 152.12474824 79.65870546 152.11821747 86.10067749 C152.11688064 88.55993672 152.11852983 91.01919939 152.12317657 93.47845459 C152.12823976 96.91182209 152.12053426 100.34492668 152.109375 103.77827454 C152.11342346 104.80070755 152.11747192 105.82314056 152.12164307 106.8765564 C152.11600342 107.81031601 152.11036377 108.74407562 152.10455322 109.70613098 C152.10342215 110.92396648 152.10342215 110.92396648 152.10226822 112.16640472 C151.85058594 114.26069641 151.85058594 114.26069641 149.85058594 117.26069641 C149.19058594 117.26069641 148.53058594 117.26069641 147.85058594 117.26069641 C147.85058594 119.24069641 147.85058594 121.22069641 147.85058594 123.26069641 C148.84058594 123.26069641 149.83058594 123.26069641 150.85058594 123.26069641 C151.47558594 126.07319641 151.47558594 126.07319641 151.85058594 129.26069641 C151.19058594 130.25069641 150.53058594 131.24069641 149.85058594 132.26069641 C149.19058594 132.26069641 148.53058594 132.26069641 147.85058594 132.26069641 C147.85058594 134.24069641 147.85058594 136.22069641 147.85058594 138.26069641 C148.84058594 138.26069641 149.83058594 138.26069641 150.85058594 138.26069641 C151.99374341 140.54701136 151.97171326 141.80417047 151.96411133 144.34321594 C151.9640358 145.18393646 151.96396027 146.02465698 151.96388245 146.89085388 C151.95872116 147.79923004 151.95355988 148.7076062 151.94824219 149.64350891 C151.94611977 151.0376149 151.94611977 151.0376149 151.94395447 152.45988464 C151.93834647 155.43518765 151.92579261 158.41041605 151.91308594 161.38569641 C151.90807197 163.40001824 151.90350888 165.41434125 151.89941406 167.42866516 C151.88922432 172.37272761 151.86965047 177.31662826 151.85058594 182.26069641 C161.42058594 182.26069641 170.99058594 182.26069641 180.85058594 182.26069641 C183.29596355 187.15145163 182.59827295 194.56902318 181.16699219 199.72163391 C178.65883339 205.15424341 174.99185199 208.6859283 169.61921692 211.37931824 C166.1337808 212.48888731 163.14883601 212.50021345 159.48999023 212.48774719 C158.76749588 212.48803925 158.04500153 212.4883313 157.3006134 212.4886322 C154.92521939 212.4872448 152.55014355 212.47171166 150.17480469 212.45600891 C148.52285432 212.45227668 146.87090174 212.4494307 145.21894836 212.44743347 C140.88046103 212.43981355 136.54210854 212.42017922 132.20367432 212.39802551 C127.7728457 212.37753167 123.34199521 212.3684242 118.91113281 212.35835266 C110.22422211 212.33693172 101.53742082 212.30281567 92.85058594 212.26069641 C92.19058594 210.94069641 91.53058594 209.62069641 90.85058594 208.26069641 C89.20058594 208.26069641 87.55058594 208.26069641 85.85058594 208.26069641 C85.85058594 209.25069641 85.85058594 210.24069641 85.85058594 211.26069641 C83.14179258 212.61509309 80.84125326 212.32571092 77.85058594 212.26069641 C77.19058594 210.94069641 76.53058594 209.62069641 75.85058594 208.26069641 C74.20058594 208.26069641 72.55058594 208.26069641 70.85058594 208.26069641 C70.52058594 209.58069641 70.19058594 210.90069641 69.85058594 212.26069641 C61.77463101 212.35367616 53.69890246 212.42460201 45.62254333 212.4679451 C41.87170404 212.48875538 38.12123292 212.51695108 34.37060547 212.56245422 C30.74605732 212.60614891 27.12186167 212.62988277 23.49707031 212.64020538 C22.119247 212.64755473 20.74144139 212.66190587 19.36376953 212.68361664 C10.9329809 212.81110558 3.82653539 212.91764894 -2.65844727 206.84840393 C-7.55950946 201.37598913 -8.44620458 196.39976651 -8.40338135 189.26992798 C-8.40650133 188.47077428 -8.40962131 187.67162057 -8.41283584 186.84825009 C-8.4208058 184.17356382 -8.41449618 181.49910504 -8.40820312 178.82441711 C-8.41091337 176.90576545 -8.41447448 174.98711483 -8.41882324 173.06846619 C-8.42794372 167.86009047 -8.42440486 162.65179394 -8.41806507 157.44341683 C-8.41300553 151.99775747 -8.41769619 146.55210494 -8.4208374 141.10644531 C-8.42447625 131.96440918 -8.4196791 122.82240537 -8.41015625 113.68037415 C-8.39926211 103.0994538 -8.40280458 92.51861048 -8.41380906 81.93769199 C-8.42287262 72.86077059 -8.42417208 63.78387244 -8.41893172 54.70694798 C-8.41580814 49.28213086 -8.41541349 43.85734999 -8.4220047 38.43253517 C-8.42776435 33.33622869 -8.42380672 28.240022 -8.41221619 23.14372635 C-8.4095626 21.26915973 -8.41034652 19.39458478 -8.41474152 17.52002144 C-8.42017072 14.97007064 -8.41339519 12.42044382 -8.40338135 9.87051392 C-8.40784279 9.12101528 -8.41230423 8.37151664 -8.41690087 7.59930593 C-8.36403769 0.70533639 -6.58966001 0.01180474 0 0 Z " fill="#FDF3F3" transform="translate(32.1494140625,21.739303588867188)"/>
<path d="M0 0 C5.02406142 2.25216547 7.32570205 5.25140907 10 10 C10.34835661 12.7267727 10.49506468 15.02528723 10.42578125 17.734375 C10.42249313 18.45361145 10.41920502 19.1728479 10.41581726 19.91387939 C10.40545102 21.42331086 10.38559434 22.93270425 10.35668945 24.44189453 C10.31236488 26.75705774 10.29520961 29.07118243 10.28320312 31.38671875 C10.26978777 32.85678588 10.2548672 34.32684022 10.23828125 35.796875 C10.23089432 36.48956482 10.22350739 37.18225464 10.21589661 37.89593506 C10.11846364 42.76307271 10.11846364 42.76307271 9 45 C8.01 45 7.02 45 6 45 C6.26393501 48.43230448 6.26393501 48.43230448 7 52 C7.99 52.66 8.98 53.32 10 54 C10.375 57 10.375 57 10 60 C9.01 60.66 8.02 61.32 7 62 C6.5 64.5 6.5 64.5 7 67 C7.99 67.66 8.98 68.32 10 69 C10.45497131 71.68937683 10.45497131 71.68937683 10.56274414 75.16088867 C10.60770523 76.46213181 10.65266632 77.76337494 10.69898987 79.10404968 C10.73021429 80.54197055 10.75886045 81.97994931 10.78515625 83.41796875 C10.79987913 84.14972132 10.81460201 84.88147388 10.82977104 85.63540077 C10.90435648 89.54193723 10.95721016 93.44817246 10.99536133 97.35522461 C11.03025765 100.52727605 11.10537218 103.69389474 11.22094727 106.86401367 C11.86294672 124.87516479 10.94617756 140.13724674 3.24609375 156.67578125 C2.93456926 157.34646322 2.62304478 158.0171452 2.30208015 158.70815086 C-2.78675646 169.39545101 -2.78675646 169.39545101 -6.71958923 171.35514832 C-7.47212479 171.56794937 -8.22466034 171.78075043 -9 172 C-19.87950449 161.97242612 -26.42599701 143.38931917 -27.4388752 128.87137604 C-27.61985599 123.05666131 -27.61158338 117.26151312 -27.48277903 111.44577217 C-27.41848564 107.94590721 -27.42713015 104.44603044 -27.42550659 100.94567871 C-27.41272599 95.10273659 -27.35146991 89.26206064 -27.25537109 83.41992188 C-27.14474089 76.67758748 -27.09832889 69.93719917 -27.0877763 63.19401026 C-27.07631488 55.95617237 -27.02679686 48.71901344 -26.96186209 41.48147392 C-26.94535602 39.41170682 -26.93513109 37.34198253 -26.92599869 35.27217102 C-26.90621671 31.43404928 -26.84280688 27.59733493 -26.77392578 23.75976562 C-26.77147858 22.62124146 -26.76903137 21.48271729 -26.76651001 20.30969238 C-26.57726992 12.6248215 -26.57726992 12.6248215 -23.59225464 9.3939209 C-22.73681061 8.933927 -21.88136658 8.47393311 -21 8 C-18.35435405 5.57482454 -17.14586922 4.43760767 -16 1 C-11.34932217 -1.32533892 -5.06152701 -0.40930344 0 0 Z " fill="#2D2D2D" transform="translate(222,22)"/>
<path d="M0 0 C1.31246704 -0.00708481 2.62493408 -0.01416962 3.97717285 -0.02146912 C5.44018589 -0.01917508 6.9031986 -0.01666535 8.36621094 -0.01396179 C9.90018971 -0.01830684 11.4341663 -0.02348929 12.96813965 -0.02944946 C17.14160046 -0.04287214 21.3149709 -0.04341459 25.4884491 -0.04088616 C28.96782795 -0.0398188 32.44718835 -0.04469372 35.92656326 -0.04949158 C44.1317202 -0.06059779 52.33683136 -0.06101774 60.54199219 -0.05497742 C69.01831041 -0.04893364 77.4944628 -0.0612563 85.97075272 -0.08254749 C93.23871548 -0.10013502 100.50662533 -0.10616942 107.77460861 -0.10290974 C112.11968237 -0.10109239 116.46463781 -0.10377792 120.80969238 -0.11762428 C124.89399355 -0.13015209 128.97803521 -0.12830683 133.06233215 -0.11521339 C134.56439805 -0.11283709 136.06648192 -0.11561975 137.56852722 -0.12383652 C139.61271865 -0.13421586 141.65698329 -0.1244503 143.70117188 -0.11352539 C144.8471283 -0.11369313 145.99308472 -0.11386087 147.17376709 -0.1140337 C148.05711731 0.00962724 148.94046753 0.13328817 149.85058594 0.26069641 C151.96489743 3.43216366 152.10118593 4.1896796 152.10455322 7.81526184 C152.1130127 9.21590126 152.1130127 9.21590126 152.12164307 10.64483643 C152.11557037 12.17848595 152.11557037 12.17848595 152.109375 13.74311829 C152.11463196 15.36051659 152.11463196 15.36051659 152.11999512 17.0105896 C152.12881538 20.58360688 152.12296214 24.15642702 152.11621094 27.72944641 C152.1175575 30.20661965 152.11949796 32.68379263 152.12200928 35.16096497 C152.12533935 41.02220277 152.11832799 46.88336873 152.10770774 52.744596 C152.10019833 57.42137862 152.10285403 62.09807708 152.11132812 66.77485657 C152.1229013 73.21682176 152.12474824 79.65870546 152.11821747 86.10067749 C152.11688064 88.55993672 152.11852983 91.01919939 152.12317657 93.47845459 C152.12823976 96.91182209 152.12053426 100.34492668 152.109375 103.77827454 C152.11342346 104.80070755 152.11747192 105.82314056 152.12164307 106.8765564 C152.11600342 107.81031601 152.11036377 108.74407562 152.10455322 109.70613098 C152.10342215 110.92396648 152.10342215 110.92396648 152.10226822 112.16640472 C151.85058594 114.26069641 151.85058594 114.26069641 149.85058594 117.26069641 C144.97558594 116.38569641 144.97558594 116.38569641 143.85058594 115.26069641 C143.75515499 113.86925952 143.72870019 112.47301274 143.73033142 111.07830811 C143.72826518 109.72859877 143.72826518 109.72859877 143.72615719 108.35162258 C143.7297553 107.35280591 143.7333534 106.35398924 143.73706055 105.3249054 C143.73694001 104.26418099 143.73681948 103.20345659 143.73669529 102.11058903 C143.73744477 98.65930179 143.74507463 95.20806781 143.75292969 91.75679016 C143.754399 89.6331332 143.75541977 87.50947588 143.75598145 85.38581848 C143.76123561 77.48993895 143.77519668 69.59406717 143.78808594 61.69819641 C143.80871094 44.06382141 143.82933594 26.42944641 143.85058594 8.26069641 C96.33058594 8.26069641 48.81058594 8.26069641 -0.14941406 8.26069641 C-0.08805251 41.73050338 -0.08805251 41.73050338 0.01074219 75.20014954 C0.05933886 88.84476074 0.10376014 102.48929669 0.12158203 116.13398743 C0.13457924 126.07041285 0.16149448 136.00668583 0.205199 145.94302541 C0.22785724 151.20540092 0.243494 156.46758809 0.24246979 161.73001671 C0.24172575 166.68194783 0.25957315 171.63346193 0.29175377 176.58528519 C0.30028094 178.40374285 0.30198366 180.22224713 0.29638863 182.04071617 C0.28976944 184.52238488 0.30761806 187.00271867 0.331604 189.48425293 C0.32384359 190.20507795 0.31608317 190.92590297 0.30808759 191.66857117 C0.39011333 196.45728259 1.45927924 198.8954681 4.85058594 202.26069641 C7.55875837 203.61478263 9.70530335 203.40784471 12.73730469 203.4342804 C13.97198486 203.44777023 15.20666504 203.46126007 16.47875977 203.47515869 C17.14017975 203.48021864 17.80159973 203.48527859 18.48306274 203.49049187 C20.55056717 203.50688915 22.61788882 203.53012475 24.68530273 203.5553894 C30.56354695 203.62621096 36.44186464 203.68636933 42.3203125 203.73750305 C45.9148107 203.7692493 49.50909704 203.81050993 53.10342407 203.85769844 C54.47494711 203.87374105 55.84651894 203.88605217 57.21810913 203.89460564 C59.13343901 203.90672463 61.04867293 203.93190339 62.96386719 203.9577179 C64.60029175 203.97317909 64.60029175 203.97317909 66.26977539 203.98895264 C68.85058594 204.26069641 68.85058594 204.26069641 70.85058594 206.26069641 C71.03808594 208.82319641 71.03808594 208.82319641 70.85058594 211.26069641 C69.07459958 213.03668277 66.48576651 212.41603469 64.08081055 212.43769836 C62.84540024 212.4505336 61.60998993 212.46336884 60.33714294 212.47659302 C58.9757426 212.48476402 57.61433772 212.49220706 56.25292969 212.49897766 C55.56878054 212.50305319 54.88463139 212.50712872 54.17975044 212.51132774 C50.55253524 212.53221974 46.92535813 212.54650285 43.2980957 212.55586243 C39.56458012 212.56688082 35.83166819 212.60121733 32.09836483 212.64103413 C29.21827657 212.66729854 26.33832925 212.67556331 23.45813179 212.67914391 C22.08311489 212.68399153 20.70810352 212.69555322 19.33320427 212.7141819 C10.92091194 212.82099438 3.81093345 212.90217339 -2.65858459 206.84854126 C-7.55918297 201.37560144 -8.4462061 196.40002069 -8.40338135 189.26992798 C-8.40650133 188.47077428 -8.40962131 187.67162057 -8.41283584 186.84825009 C-8.4208058 184.17356382 -8.41449618 181.49910504 -8.40820312 178.82441711 C-8.41091337 176.90576545 -8.41447448 174.98711483 -8.41882324 173.06846619 C-8.42794372 167.86009047 -8.42440486 162.65179394 -8.41806507 157.44341683 C-8.41300553 151.99775747 -8.41769619 146.55210494 -8.4208374 141.10644531 C-8.42447625 131.96440918 -8.4196791 122.82240537 -8.41015625 113.68037415 C-8.39926211 103.0994538 -8.40280458 92.51861048 -8.41380906 81.93769199 C-8.42287262 72.86077059 -8.42417208 63.78387244 -8.41893172 54.70694798 C-8.41580814 49.28213086 -8.41541349 43.85734999 -8.4220047 38.43253517 C-8.42776435 33.33622869 -8.42380672 28.240022 -8.41221619 23.14372635 C-8.4095626 21.26915973 -8.41034652 19.39458478 -8.41474152 17.52002144 C-8.42017072 14.97007064 -8.41339519 12.42044382 -8.40338135 9.87051392 C-8.40784279 9.12101528 -8.41230423 8.37151664 -8.41690087 7.59930593 C-8.36403769 0.70533639 -6.58966001 0.01180474 0 0 Z " fill="#313134" transform="translate(32.1494140625,21.739303588867188)"/>
<path d="M0 0 C47.52 0 95.04 0 144 0 C144 9.01445087 144 9.01445087 141.625 11.4375 C137.61341057 15.3535754 135.54649429 15.13014696 130.01171875 15.15771484 C129.29287506 15.16279556 128.57403137 15.16787628 127.83340454 15.17311096 C126.27067284 15.18382031 124.70792575 15.19243827 123.14517212 15.19923019 C120.67441731 15.21099982 118.20383883 15.23044595 115.7331543 15.25234985 C108.70790432 15.31404238 101.68267312 15.36808723 94.65722656 15.40136719 C90.36243102 15.42226205 86.06795783 15.4575201 81.77334595 15.50212479 C80.13387841 15.51632377 78.49435385 15.52501598 76.85482788 15.52817917 C74.56563348 15.53306448 72.27730163 15.55615766 69.98828125 15.58349609 C68.68415283 15.59158295 67.38002441 15.5996698 66.03637695 15.60800171 C65.03437256 15.73736115 64.03236816 15.86672058 63 16 C62.01 17.485 62.01 17.485 61 19 C58.375 19.1875 58.375 19.1875 56 19 C56 19.99 56 20.98 56 22 C53.29120665 23.35439668 50.99066732 23.06501451 48 23 C47.34 21.68 46.68 20.36 46 19 C44.824375 19.0928125 44.824375 19.0928125 43.625 19.1875 C42.75875 19.125625 41.8925 19.06375 41 19 C40.34 18.01 39.68 17.02 39 16 C36.90752575 15.52482134 36.90752575 15.52482134 34.45849609 15.56762695 C33.51767181 15.54783279 32.57684753 15.52803864 31.60751343 15.50764465 C30.58976837 15.50125473 29.57202332 15.49486481 28.5234375 15.48828125 C27.48305328 15.47033005 26.44266907 15.45237885 25.37075806 15.43388367 C22.03888029 15.37958318 18.70714734 15.34582147 15.375 15.3125 C13.11977142 15.27934439 10.86456201 15.24485639 8.609375 15.20898438 C3.07304654 15.12384566 -2.46330021 15.05557978 -8 15 C-7.60348083 13.68127338 -7.18201309 12.37002899 -6.75 11.0625 C-6.51796875 10.33160156 -6.2859375 9.60070312 -6.046875 8.84765625 C-5 7 -5 7 -2.890625 6.24609375 C-2.26671875 6.16488281 -1.6428125 6.08367187 -1 6 C-0.67 4.02 -0.34 2.04 0 0 Z " fill="#EDE0E0" transform="translate(62,211)"/>
<path d="M0 0 C0.78375 0.04125 1.5675 0.0825 2.375 0.125 C3.51815747 2.41131494 3.49612732 3.66847406 3.48852539 6.20751953 C3.48844986 7.04824005 3.48837433 7.88896057 3.48829651 8.75515747 C3.48055458 10.11772171 3.48055458 10.11772171 3.47265625 11.5078125 C3.47053383 12.90191849 3.47053383 12.90191849 3.46836853 14.32418823 C3.46276053 17.29949124 3.45020668 20.27471964 3.4375 23.25 C3.43248603 25.26432183 3.42792295 27.27864484 3.42382812 29.29296875 C3.41363838 34.2370312 3.39406453 39.18093185 3.375 44.125 C12.945 44.125 22.515 44.125 32.375 44.125 C34.82037761 49.01575522 34.12268701 56.43332676 32.69140625 61.5859375 C30.18374353 67.01747251 26.51682672 70.5541403 21.14164734 73.24163818 C17.67135472 74.34966664 14.69018693 74.37932008 11.04614258 74.38378906 C10.32686081 74.3872937 9.60757904 74.39079834 8.86650085 74.39440918 C6.50074476 74.40317696 4.13529012 74.39739687 1.76953125 74.390625 C0.12236982 74.39197263 -1.52479122 74.39391399 -3.17195129 74.39642334 C-6.61752117 74.3993675 -10.06298714 74.3950981 -13.50854492 74.38574219 C-17.93064436 74.37432111 -22.35250174 74.38092828 -26.7745924 74.39288712 C-30.17257016 74.40010192 -33.57049016 74.39782001 -36.96846962 74.39263153 C-38.59960267 74.39129537 -40.23074093 74.39294158 -41.8618679 74.39759064 C-44.13616291 74.40265263 -46.41006086 74.39495181 -48.68432617 74.38378906 C-49.97940598 74.38219788 -51.27448578 74.38060669 -52.60881042 74.37896729 C-55.625 74.125 -55.625 74.125 -57.625 72.125 C-57.06944444 67.56944444 -57.06944444 67.56944444 -55.625 66.125 C-53.35112875 66.02190253 -51.07405065 65.98925924 -48.79785156 65.9831543 C-47.72703339 65.97794266 -47.72703339 65.97794266 -46.63458252 65.97262573 C-45.07892898 65.96525568 -43.52326483 65.95991698 -41.96759796 65.95633507 C-39.50449537 65.94918645 -37.04159397 65.93353112 -34.57855225 65.91499329 C-27.57355554 65.86245557 -20.56866593 65.81456048 -13.56347656 65.79907227 C-9.28272344 65.78898558 -5.00247133 65.75964 -0.7219162 65.71775246 C0.90948953 65.70544284 2.54096605 65.70032114 4.17241669 65.70255089 C6.45891135 65.70490625 8.74397263 65.68272093 11.03027344 65.6550293 C12.98099762 65.64622993 12.98099762 65.64622993 14.97113037 65.63725281 C19.14731528 65.00877326 20.6576346 64.37671474 23.375 61.125 C24.035 57.825 24.695 54.525 25.375 51.125 C-22.145 51.125 -69.665 51.125 -118.625 51.125 C-118.625 53.105 -118.625 55.085 -118.625 57.125 C-119.625 58.125 -119.625 58.125 -122.125 58.25 C-124.625 58.125 -124.625 58.125 -125.625 57.125 C-125.74987758 55.31572719 -125.80070846 53.50103893 -125.8125 51.6875 C-125.82667969 50.69878906 -125.84085938 49.71007812 -125.85546875 48.69140625 C-125.625 46.125 -125.625 46.125 -123.625 44.125 C-121.52043724 43.87890434 -121.52043724 43.87890434 -118.86679077 43.88449097 C-117.36074028 43.88036697 -117.36074028 43.88036697 -115.82426453 43.87615967 C-114.16594353 43.8869455 -114.16594353 43.8869455 -112.47412109 43.89794922 C-110.73267067 43.89751114 -110.73267067 43.89751114 -108.95603943 43.89706421 C-105.10343046 43.89846196 -101.25101285 43.91404425 -97.3984375 43.9296875 C-94.7332832 43.93341605 -92.06813963 43.9363621 -89.40298462 43.93826294 C-83.09543425 43.94448512 -76.787953 43.96090587 -70.48043311 43.98096192 C-63.30036378 44.00329801 -56.1202912 44.01430857 -48.9401958 44.02435279 C-34.16842847 44.04527149 -19.39671544 44.08046177 -4.625 44.125 C-4.63547363 42.86316895 -4.64594727 41.60133789 -4.65673828 40.30126953 C-4.69286899 35.63105086 -4.71587516 30.96084461 -4.73486328 26.29052734 C-4.74493671 24.26706873 -4.75859595 22.24362472 -4.77587891 20.22021484 C-4.80006847 17.31604411 -4.81146949 14.41206539 -4.8203125 11.5078125 C-4.83063507 10.59943634 -4.84095764 9.69106018 -4.85159302 8.75515747 C-4.85174408 7.91443695 -4.85189514 7.07371643 -4.85205078 6.20751953 C-4.856492 5.46583527 -4.86093323 4.724151 -4.86550903 3.95999146 C-4.44125142 0.72306895 -3.0994741 0.147594 0 0 Z " fill="#2D2D30" transform="translate(180.625,159.875)"/>
<path d="M0 0 C2.31 0 4.62 0 7 0 C7.03738281 0.91523437 7.07476562 1.83046875 7.11328125 2.7734375 C7.17902344 3.96195313 7.24476563 5.15046875 7.3125 6.375 C7.39951172 8.15003906 7.39951172 8.15003906 7.48828125 9.9609375 C7.65714844 10.96382812 7.82601562 11.96671875 8 13 C8.99 13.66 9.98 14.32 11 15 C11.33333333 17.33333333 11.66666667 19.66666667 12 22 C12.99 22.66 13.98 23.32 15 24 C15.375 27 15.375 27 15 30 C14.01 30.66 13.02 31.32 12 32 C11.835 32.99 11.67 33.98 11.5 35 C11.335 35.99 11.17 36.98 11 38 C10.01 38.66 9.02 39.32 8 40 C7.52120602 42.78598173 7.52120602 42.78598173 7.56762695 46.10205078 C7.54783279 47.38322784 7.52803864 48.66440491 7.50764465 49.98440552 C7.50087434 51.38803969 7.49442754 52.79167546 7.48828125 54.1953125 C7.47144159 55.62736564 7.45329232 57.05940393 7.43388367 58.49142456 C7.38629942 62.26266847 7.356545 66.03385221 7.33044434 69.80529785 C7.30068096 73.65287158 7.25413629 77.50023778 7.20898438 81.34765625 C7.12285564 88.89833472 7.05555341 96.44902813 7 104 C4.69 104 2.38 104 0 104 C0 69.68 0 35.36 0 0 Z " fill="#F1B43E" transform="translate(217,52)"/>
<path d="M0 0 C0.93199219 -0.00257812 1.86398438 -0.00515625 2.82421875 -0.0078125 C3.80003906 -0.00007813 4.77585937 0.00765625 5.78125 0.015625 C6.75707031 0.00789063 7.73289062 0.00015625 8.73828125 -0.0078125 C9.67027344 -0.00523438 10.60226563 -0.00265625 11.5625 0 C12.41908203 0.00225586 13.27566406 0.00451172 14.15820312 0.00683594 C16.28125 0.265625 16.28125 0.265625 18.28125 2.265625 C18.54003906 5.3984375 18.54003906 5.3984375 18.546875 9.390625 C18.54878845 10.0933252 18.5507019 10.79602539 18.55267334 11.52001953 C18.55403475 13.00618854 18.55034132 14.49236945 18.54199219 15.97851562 C18.53129154 18.25678146 18.54188839 20.53425877 18.5546875 22.8125 C18.5533659 24.25521008 18.55080349 25.69791966 18.546875 27.140625 C18.54461914 28.45804688 18.54236328 29.77546875 18.54003906 31.1328125 C18.28125 34.265625 18.28125 34.265625 16.28125 36.265625 C14.63125 35.935625 12.98125 35.605625 11.28125 35.265625 C11.28125 30.975625 11.28125 26.685625 11.28125 22.265625 C7.98125 22.265625 4.68125 22.265625 1.28125 22.265625 C1.30445312 23.10867187 1.32765625 23.95171875 1.3515625 24.8203125 C1.37863281 26.46386719 1.37863281 26.46386719 1.40625 28.140625 C1.42945312 29.23117188 1.45265625 30.32171875 1.4765625 31.4453125 C1.28125 34.265625 1.28125 34.265625 -0.71875 36.265625 C-5.27430556 35.71006944 -5.27430556 35.71006944 -6.71875 34.265625 C-6.83192284 31.91334181 -6.88291537 29.59150552 -6.88671875 27.23828125 C-6.89004715 26.53416611 -6.89337555 25.83005096 -6.89680481 25.104599 C-6.90187655 23.61246394 -6.90421306 22.1203175 -6.90405273 20.62817383 C-6.90623759 18.34111893 -6.92438549 16.05454747 -6.94335938 13.76757812 C-6.94629354 12.32031416 -6.94827818 10.87304789 -6.94921875 9.42578125 C-6.95640427 8.73927994 -6.96358978 8.05277863 -6.97099304 7.34547424 C-6.94291325 1.52909774 -5.78581821 0.01523729 0 0 Z " fill="#343437" transform="translate(110.71875,37.734375)"/>
<path d="M0 0 C2.31 0 4.62 0 7 0 C7 34.32 7 68.64 7 104 C4.69 104 2.38 104 0 104 C0 69.68 0 35.36 0 0 Z " fill="#F0B33E" transform="translate(203,52)"/>
<path d="M0 0 C3.66301545 0.14550839 4.85540872 0.85265022 7.45703125 3.50390625 C8.23433594 4.51324219 9.01164063 5.52257813 9.8125 6.5625 C10.60269531 7.57441406 11.39289063 8.58632813 12.20703125 9.62890625 C12.79871094 10.41136719 13.39039063 11.19382812 14 12 C16.88955204 9.14982856 19.69599665 6.29079467 22.3125 3.1875 C23.08013672 2.28064453 23.08013672 2.28064453 23.86328125 1.35546875 C24.23839844 0.90816406 24.61351562 0.46085937 25 0 C27.475 0.495 27.475 0.495 30 1 C30 12.22 30 23.44 30 35 C27.525 35.495 27.525 35.495 25 36 C22.64641749 33.64641749 22.72128096 33.07031606 22.5859375 29.8671875 C22.54726562 29.06152344 22.50859375 28.25585938 22.46875 27.42578125 C22.4378125 26.58402344 22.406875 25.74226563 22.375 24.875 C22.33632812 24.02550781 22.29765625 23.17601563 22.2578125 22.30078125 C22.16343506 20.20088316 22.08062414 18.10047109 22 16 C21.2265625 16.97453125 20.453125 17.9490625 19.65625 18.953125 C17.3125 21.90625 17.3125 21.90625 14.5 22.75 C10.72928673 21.61878602 9.42471924 19.05514624 7 16 C6.95101562 17.27617188 6.90203125 18.55234375 6.8515625 19.8671875 C6.77653809 21.53648072 6.70099012 23.20575046 6.625 24.875 C6.5940625 25.71675781 6.563125 26.55851562 6.53125 27.42578125 C6.49257812 28.23144531 6.45390625 29.03710938 6.4140625 29.8671875 C6.36693115 30.98262939 6.36693115 30.98262939 6.31884766 32.12060547 C6 34 6 34 4 36 C1.375 35.625 1.375 35.625 -1 35 C-1.0246519 30.17619198 -1.04283693 25.35242033 -1.05493164 20.52856445 C-1.05997174 18.88630536 -1.06680378 17.24405077 -1.07543945 15.60180664 C-1.08751926 13.24624521 -1.09323139 10.89074291 -1.09765625 8.53515625 C-1.10281754 7.79660904 -1.10797882 7.05806183 -1.11329651 6.2971344 C-1.1134925 4.53101912 -1.06194719 2.76502854 -1 1 C-0.67 0.67 -0.34 0.34 0 0 Z " fill="#313235" transform="translate(135,38)"/>
<path d="M0 0 C0.93199219 -0.00257812 1.86398438 -0.00515625 2.82421875 -0.0078125 C3.80003906 -0.00007813 4.77585937 0.00765625 5.78125 0.015625 C6.75707031 0.00789063 7.73289062 0.00015625 8.73828125 -0.0078125 C9.67027344 -0.00523438 10.60226563 -0.00265625 11.5625 0 C12.41908203 0.00225586 13.27566406 0.00451172 14.15820312 0.00683594 C16.28125 0.265625 16.28125 0.265625 18.28125 2.265625 C17.74553571 5.80133929 17.74553571 5.80133929 16.28125 7.265625 C13.58470146 7.33882121 10.91433542 7.35805037 8.21875 7.328125 C7.46013672 7.32361328 6.70152344 7.31910156 5.91992188 7.31445312 C4.04033129 7.3026318 2.16078101 7.28469578 0.28125 7.265625 C0.28125 9.905625 0.28125 12.545625 0.28125 15.265625 C5.89125 15.265625 11.50125 15.265625 17.28125 15.265625 C17.61125 16.915625 17.94125 18.565625 18.28125 20.265625 C16.28125 22.265625 16.28125 22.265625 12.8046875 22.4609375 C11.42174032 22.44763993 10.03886346 22.42378732 8.65625 22.390625 C7.59664062 22.37708984 7.59664062 22.37708984 6.515625 22.36328125 C4.77068902 22.33970103 3.02592705 22.30382961 1.28125 22.265625 C1.28125 24.575625 1.28125 26.885625 1.28125 29.265625 C2.34085938 29.24242188 3.40046875 29.21921875 4.4921875 29.1953125 C5.8802013 29.17655556 7.2682227 29.15835528 8.65625 29.140625 C9.70425781 29.11548828 9.70425781 29.11548828 10.7734375 29.08984375 C12.61022486 29.07218233 14.44726963 29.16259239 16.28125 29.265625 C16.94125 29.925625 17.60125 30.585625 18.28125 31.265625 C17.74553571 34.80133929 17.74553571 34.80133929 16.28125 36.265625 C12.80916193 36.51661424 9.3238438 36.45084596 5.84375 36.453125 C4.86341797 36.46537109 3.88308594 36.47761719 2.87304688 36.49023438 C1.93654297 36.49216797 1.00003906 36.49410156 0.03515625 36.49609375 C-0.82779053 36.50020264 -1.6907373 36.50431152 -2.57983398 36.50854492 C-4.71875 36.265625 -4.71875 36.265625 -6.71875 34.265625 C-6.97753906 31.1328125 -6.97753906 31.1328125 -6.984375 27.140625 C-6.98628845 26.4379248 -6.9882019 25.73522461 -6.99017334 25.01123047 C-6.99153475 23.52506146 -6.98784132 22.03888055 -6.97949219 20.55273438 C-6.96879154 18.27446854 -6.97938839 15.99699123 -6.9921875 13.71875 C-6.9908659 12.27603992 -6.98830349 10.83333034 -6.984375 9.390625 C-6.98211914 8.07320312 -6.97986328 6.75578125 -6.97753906 5.3984375 C-6.55729088 0.31105573 -4.60499131 0.01212752 0 0 Z " fill="#343437" transform="translate(48.71875,37.734375)"/>
<path d="M0 0 C1.07853745 0.00607269 1.07853745 0.00607269 2.17886353 0.01226807 C2.9367215 0.00876343 3.69457947 0.00525879 4.47540283 0.00164795 C6.98732591 -0.00717417 9.49896869 -0.00131861 12.01089478 0.00543213 C13.75202488 0.00408561 15.49315463 0.0021452 17.23428345 -0.00036621 C20.88609389 -0.00331812 24.53780661 0.0009823 28.18960571 0.01031494 C32.87746459 0.02170954 37.56509448 0.01515042 42.25294495 0.00317001 C45.84908788 -0.00404679 49.44517625 -0.00176149 53.0413208 0.0034256 C54.77014187 0.00476259 56.49896786 0.00311264 58.2277832 -0.00153351 C60.64129818 -0.00659584 63.05443901 0.00110714 65.46792603 0.01226807 C66.18695099 0.0082196 66.90597595 0.00417114 67.64678955 0 C72.59486581 0.04252817 72.59486581 0.04252817 74.82339478 2.27105713 C74.49339478 3.92105713 74.16339478 5.57105713 73.82339478 7.27105713 C47.42339478 7.27105713 21.02339478 7.27105713 -6.17660522 7.27105713 C-6.50660522 5.62105713 -6.83660522 3.97105713 -7.17660522 2.27105713 C-4.71954662 -0.18600147 -3.35359113 0.02882374 0 0 Z " fill="#37373A" transform="translate(86.17660522460938,169.72894287109375)"/>
<path d="M0 0 C26.4 0 52.8 0 80 0 C80.495 2.475 80.495 2.475 81 5 C78.5429414 7.4570586 77.17698591 7.24223338 73.82339478 7.27105713 C73.10436981 7.26700867 72.38534485 7.26296021 71.64453125 7.25878906 C70.88667328 7.2622937 70.12881531 7.26579834 69.34799194 7.26940918 C66.83606886 7.2782313 64.32442608 7.27237574 61.8125 7.265625 C60.07136989 7.26697151 58.33024015 7.26891193 56.58911133 7.27142334 C52.93730088 7.27437525 49.28558817 7.27007483 45.63378906 7.26074219 C40.94593019 7.24934759 36.2583003 7.25590671 31.57044983 7.26788712 C27.9743069 7.27510392 24.37821852 7.27281862 20.78207397 7.26763153 C19.0532529 7.26629454 17.32442692 7.26794449 15.59561157 7.27259064 C13.18209659 7.27765297 10.76895577 7.26994999 8.35546875 7.25878906 C7.2769313 7.26486176 7.2769313 7.26486176 6.17660522 7.27105713 C1.22852896 7.22852896 1.22852896 7.22852896 -1 5 C-0.67 3.35 -0.34 1.7 0 0 Z " fill="#2F3033" transform="translate(80,136)"/>
<path d="M0 0 C0.72262024 0.00045319 1.44524048 0.00090637 2.1897583 0.00137329 C2.94747025 -0.00198532 3.70518219 -0.00534393 4.4858551 -0.00880432 C7.00313941 -0.01834226 9.52035741 -0.02025885 12.03765869 -0.02133179 C13.78021777 -0.0245424 15.52277658 -0.02790631 17.26533508 -0.03141785 C20.92309189 -0.03741624 24.58082504 -0.03925702 28.23858643 -0.03866577 C32.93430423 -0.03856411 37.62987097 -0.0522174 42.32555294 -0.06943798 C45.92597658 -0.08053599 49.52636345 -0.08258566 53.12680244 -0.08205605 C54.85841963 -0.08323945 56.59003767 -0.08768126 58.32163811 -0.09538841 C60.74002653 -0.10514414 63.15808373 -0.10232794 65.57647705 -0.09628296 C66.29707306 -0.10190247 67.01766907 -0.10752197 67.76010132 -0.11331177 C72.71949924 -0.08167874 72.71949924 -0.08167874 74.94781494 2.14663696 C74.57281494 4.77163696 74.57281494 4.77163696 73.94781494 7.14663696 C63.68205486 7.19291079 53.41631946 7.22848089 43.15047646 7.25026131 C38.383992 7.26071308 33.61757873 7.2748976 28.85113525 7.29751587 C24.25406568 7.31919469 19.6570647 7.33119508 15.05994797 7.33639145 C13.30320531 7.34009615 11.54646653 7.34733018 9.78975296 7.35809708 C7.33535806 7.3725462 4.88124921 7.37461769 2.42681885 7.37368774 C1.69530106 7.3808783 0.96378326 7.38806885 0.21009827 7.39547729 C-4.82408074 7.37474129 -4.82408074 7.37474129 -7.05218506 5.14663696 C-6.28126734 0.05858 -4.94523574 0.03221095 0 0 Z " fill="#2B2C2F" transform="translate(86.05218505859375,100.85336303710938)"/>
<path d="M0 0 C1.39895508 -0.01836914 1.39895508 -0.01836914 2.82617188 -0.03710938 C4.16325195 -0.04000977 4.16325195 -0.04000977 5.52734375 -0.04296875 C6.348396 -0.04707764 7.16944824 -0.05118652 8.01538086 -0.05541992 C10.0625 0.1875 10.0625 0.1875 12.0625 2.1875 C12.32128906 4.21875 12.32128906 4.21875 12.328125 6.6875 C12.33199219 8.0178125 12.33199219 8.0178125 12.3359375 9.375 C12.32820313 10.303125 12.32046875 11.23125 12.3125 12.1875 C12.32023437 13.115625 12.32796875 14.04375 12.3359375 15 C12.33335938 15.886875 12.33078125 16.77375 12.328125 17.6875 C12.32586914 18.5021875 12.32361328 19.316875 12.32128906 20.15625 C12.0625 22.1875 12.0625 22.1875 10.0625 24.1875 C8.01538086 24.43041992 8.01538086 24.43041992 5.52734375 24.41796875 C4.63595703 24.41603516 3.74457031 24.41410156 2.82617188 24.41210938 C1.89353516 24.39986328 0.96089844 24.38761719 0 24.375 C-1.40475586 24.3740332 -1.40475586 24.3740332 -2.83789062 24.37304688 C-9.79730776 24.32769224 -9.79730776 24.32769224 -10.9375 23.1875 C-11.0366657 21.56492456 -11.06829777 19.93810169 -11.0703125 18.3125 C-11.07160156 17.32765625 -11.07289062 16.3428125 -11.07421875 15.328125 C-11.07035156 14.29171875 -11.06648438 13.2553125 -11.0625 12.1875 C-11.06830078 10.63289062 -11.06830078 10.63289062 -11.07421875 9.046875 C-11.07292969 8.06203125 -11.07164063 7.0771875 -11.0703125 6.0625 C-11.06918457 5.15242187 -11.06805664 4.24234375 -11.06689453 3.3046875 C-10.75039072 -1.87403153 -3.97673659 0.00273691 0 0 Z " fill="#303134" transform="translate(57.9375,161.8125)"/>
<path d="M0 0 C0.84175781 -0.00257812 1.68351562 -0.00515625 2.55078125 -0.0078125 C3.87142578 0.00378906 3.87142578 0.00378906 5.21875 0.015625 C6.09917969 0.00789063 6.97960938 0.00015625 7.88671875 -0.0078125 C8.72847656 -0.00523438 9.57023437 -0.00265625 10.4375 0 C11.59668945 0.00338379 11.59668945 0.00338379 12.77929688 0.00683594 C14.71875 0.265625 14.71875 0.265625 16.71875 2.265625 C16.97753906 4.296875 16.97753906 4.296875 16.984375 6.765625 C16.98824219 8.0959375 16.98824219 8.0959375 16.9921875 9.453125 C16.98445313 10.38125 16.97671875 11.309375 16.96875 12.265625 C16.97648437 13.19375 16.98421875 14.121875 16.9921875 15.078125 C16.98960938 15.965 16.98703125 16.851875 16.984375 17.765625 C16.98211914 18.5803125 16.97986328 19.395 16.97753906 20.234375 C16.71875 22.265625 16.71875 22.265625 14.71875 24.265625 C12.67163086 24.50854492 12.67163086 24.50854492 10.18359375 24.49609375 C9.29220703 24.49416016 8.40082031 24.49222656 7.48242188 24.49023438 C6.54978516 24.47798828 5.61714844 24.46574219 4.65625 24.453125 C3.25149414 24.4521582 3.25149414 24.4521582 1.81835938 24.45117188 C-5.14105776 24.40581724 -5.14105776 24.40581724 -6.28125 23.265625 C-6.53223924 19.79353693 -6.46647096 16.3082188 -6.46875 12.828125 C-6.48099609 11.84779297 -6.49324219 10.86746094 -6.50585938 9.85742188 C-6.50875977 8.45266602 -6.50875977 8.45266602 -6.51171875 7.01953125 C-6.51582764 6.15658447 -6.51993652 5.2936377 -6.52416992 4.40454102 C-6.04517969 0.18702001 -3.67480702 0.01072713 0 0 Z " fill="#323336" transform="translate(53.28125,126.734375)"/>
<path d="M0 0 C2.32421875 0.12109375 2.32421875 0.12109375 5 1 C7.01953125 3.28515625 7.01953125 3.28515625 8.8125 6.0625 C9.41707031 6.98160156 10.02164063 7.90070312 10.64453125 8.84765625 C11.09183594 9.55792969 11.53914063 10.26820312 12 11 C14.52900988 8.557452 16.74879703 6.14062651 18.75 3.25 C19.4925 2.1775 20.235 1.105 21 0 C23.475 0.495 23.475 0.495 26 1 C26.66552734 2.7421875 26.66552734 2.7421875 27 5 C25.97119141 7.0078125 25.97119141 7.0078125 24.3515625 9.125 C23.76197754 9.9089917 23.17239258 10.6929834 22.56494141 11.50073242 C21.92476074 12.32549072 21.28458008 13.15024902 20.625 14 C19.9861084 14.84344971 19.3472168 15.68689941 18.68896484 16.5559082 C17.40327702 18.25164983 16.11246809 19.94352167 14.81640625 21.63134766 C12.78696618 24.27780298 10.78753908 26.94529407 8.79443359 29.61914062 C7.20409748 31.75198389 5.60238625 33.87620235 4 36 C2.35 35.67 0.7 35.34 -1 35 C-1.41272049 31.54815589 -1.14816072 30.22128726 0.8203125 27.28125 C2.35889334 25.42452193 3.90057277 23.57035722 5.4453125 21.71875 C7.32150243 19.13327153 7.32150243 19.13327153 6.47265625 16.44140625 C4.42481804 13.046449 1.9507832 10.17555492 -0.63671875 7.18359375 C-2 5 -2 5 -1.76953125 2.78515625 C-1 1 -1 1 0 0 Z " fill="#313235" transform="translate(73,38)"/>
<path d="M0 0 C0.36222656 0.48597656 0.72445312 0.97195312 1.09765625 1.47265625 C4.46666851 4.17755111 8.70139775 3.42493853 12.87109375 3.49609375 C16 4 16 4 18.39453125 5.64453125 C21.38456702 10.03137205 20.22358429 14.85756128 20 20 C12.74 20 5.48 20 -2 20 C-2.1953125 16.97265625 -2.390625 13.9453125 -2.5859375 10.91796875 C-2.81195733 7.81373814 -2.81195733 7.81373814 -5 5 C-3.35 3.35 -1.7 1.7 0 0 Z " fill="#3A4261" transform="translate(205,26)"/>
<path d="M0 0 C0.71542969 0.103125 1.43085937 0.20625 2.16796875 0.3125 C3.08203125 2.35546875 3.08203125 2.35546875 3.16796875 5.3125 C1.3109707 8.09957482 -1.04587098 10.31608814 -3.45703125 12.625 C-4.08738281 13.27017578 -4.71773437 13.91535156 -5.3671875 14.58007812 C-9.97439686 19.10587111 -9.97439686 19.10587111 -13.5234375 19.9609375 C-16.52604705 19.11756494 -17.96496725 17.8456104 -20.14453125 15.625 C-20.84191406 14.94050781 -21.53929687 14.25601563 -22.2578125 13.55078125 C-24.11933772 10.90399726 -24.15925632 9.47937316 -23.83203125 6.3125 C-21.70703125 5.5 -21.70703125 5.5 -18.83203125 5.3125 C-16.53095564 6.75673481 -14.81556739 8.42122135 -12.83203125 10.3125 C-12.16816406 9.590625 -11.50429688 8.86875 -10.8203125 8.125 C-9.93730469 7.196875 -9.05429687 6.26875 -8.14453125 5.3125 C-7.27441406 4.384375 -6.40429688 3.45625 -5.5078125 2.5 C-2.83203125 0.3125 -2.83203125 0.3125 0 0 Z " fill="#303134" transform="translate(71.83203125,94.6875)"/>
<path d="M0 0 C5.28 0 10.56 0 16 0 C14.60863728 4.17408817 13.20818227 7.91918562 11.375 11.875 C10.92898437 12.84179688 10.48296875 13.80859375 10.0234375 14.8046875 C9.68570313 15.52914062 9.34796875 16.25359375 9 17 C8.34 17 7.68 17 7 17 C5.82866942 14.54379149 4.66278278 12.08525083 3.5 9.625 C3.16613281 8.92632812 2.83226562 8.22765625 2.48828125 7.5078125 C0 2.2265625 0 2.2265625 0 0 Z " fill="#4C5C7D" transform="translate(206,163)"/>
<path d="M0 0 C2.97 0 5.94 0 9 0 C9 3.3 9 6.6 9 10 C6.03 10 3.06 10 0 10 C0 6.7 0 3.4 0 0 Z " fill="#F6ECED" transform="translate(54,169)"/>
<path d="M0 0 C3.63 0 7.26 0 11 0 C11 2.64 11 5.28 11 8 C7.37 8 3.74 8 0 8 C0 5.36 0 2.72 0 0 Z " fill="#E7DFDF" transform="translate(111,45)"/>
<path d="M0 0 C3.41175854 0.12184852 4.34604745 1.34604745 6.8125 3.8125 C9 7 9 7 8.8125 9.375 C8.544375 9.91125 8.27625 10.4475 8 11 C6.35 11.33 4.7 11.66 3 12 C2.13050683 10.92892883 1.27985795 9.84254056 0.4375 8.75 C-0.03816406 8.14671875 -0.51382813 7.5434375 -1.00390625 6.921875 C-2 5 -2 5 -1.71484375 2.828125 C-1 1 -1 1 0 0 Z " fill="#343437" transform="translate(91,62)"/>
<path d="M0 0 C2.97 0 5.94 0 9 0 C9 2.97 9 5.94 9 9 C6.03 9 3.06 9 0 9 C0 6.03 0 3.06 0 0 Z " fill="#FFF5F5" transform="translate(54,135)"/>
<path d="M0 0 C2 2 2 2 2.125 4.625 C2.08375 5.40875 2.0425 6.1925 2 7 C-0.70879335 8.35439668 -3.00933268 8.06501451 -6 8 C-7.0625 6.1875 -7.0625 6.1875 -8 4 C-7.67 3.01 -7.34 2.02 -7 1 C-4.48718205 -0.25640898 -2.78302919 -0.20872719 0 0 Z " fill="#343437" transform="translate(116,226)"/>
<path d="M0 0 C0.78375 0.04125 1.5675 0.0825 2.375 0.125 C3 2.9375 3 2.9375 3.375 6.125 C2.385 7.61 2.385 7.61 1.375 9.125 C-3.5 8.25 -3.5 8.25 -4.625 7.125 C-4.8125 4.6875 -4.8125 4.6875 -4.625 2.125 C-2.625 0.125 -2.625 0.125 0 0 Z " fill="#2C2D30" transform="translate(180.625,144.875)"/>
<path d="M0 0 C1.32 0.66 2.64 1.32 4 2 C4 3.98 4 5.96 4 8 C2.02 8.99 2.02 8.99 0 10 C-1.32 9.01 -2.64 8.02 -4 7 C-3.6875 4.625 -3.6875 4.625 -3 2 C-2.01 1.34 -1.02 0.68 0 0 Z " fill="#312F2D" transform="translate(228,74)"/>
</svg>
