<?xml version="1.0" encoding="UTF-8"?>
<!DOCTYPE svg PUBLIC "-//W3C//DTD SVG 1.1//EN" "http://www.w3.org/Graphics/SVG/1.1/DTD/svg11.dtd">
<!-- Creator: CorelDRAW 2021 (64-Bit) -->
<svg xmlns="http://www.w3.org/2000/svg" xml:space="preserve" width="43.3578mm" height="43.3578mm" version="1.1" style="shape-rendering:geometricPrecision; text-rendering:geometricPrecision; image-rendering:optimizeQuality; fill-rule:evenodd; clip-rule:evenodd"
viewBox="0 0 4335.78 4335.78"
 xmlns:xlink="http://www.w3.org/1999/xlink"
 xmlns:xodm="http://www.corel.com/coreldraw/odm/2003">
 <defs>
  <style type="text/css">
   <![CDATA[
    .fil0 {fill:none}
    .fil1 {fill:#FFD171;fill-rule:nonzero}
    .fil2 {fill:url(#id0)}
    .fil3 {fill:url(#id1)}
   ]]>
  </style>
  <linearGradient id="id0" gradientUnits="userSpaceOnUse" x1="3857.71" y1="3874.6" x2="461.98" y2="477.27">
   <stop offset="0" style="stop-opacity:1; stop-color:#93301D"/>
   <stop offset="1" style="stop-opacity:1; stop-color:#9F4735"/>
  </linearGradient>
  <linearGradient id="id1" gradientUnits="userSpaceOnUse" xlink:href="#id0" x1="3018.31" y1="2654.13" x2="1299.8" y2="1698.55">
  </linearGradient>
 </defs>
 <g id="Layer_x0020_1">
  <metadata id="CorelCorpID_0Corel-Layer"/>
  <rect class="fil0" x="-8.04" y="8.03" width="4335.78" height="4335.78"/>
  <g id="_1873257604640">
   <g>
    <circle class="fil1" cx="2159.85" cy="2175.93" r="2065.83"/>
    <path class="fil2" d="M2159.85 478.08c-936.09,0 -1698.67,761.78 -1698.67,1697.86 0,936.07 762.58,1697.85 1698.67,1697.85 936.08,0 1698.66,-761.78 1698.66,-1697.85 0,-936.08 -762.58,-1697.86 -1698.66,-1697.86zm0 3295.65c-881.21,0 -1597.8,-716.59 -1597.8,-1597.79 0,-881.21 716.59,-1597.8 1597.8,-1597.8 881.2,0 1597.79,716.59 1597.79,1597.8 0,881.2 -716.59,1597.79 -1597.79,1597.79z"/>
    <g>
     <path class="fil3" d="M2665.01 2744.04c-37.93,67.79 -93.61,125.89 -167.05,171.88 -73.43,46.81 -160.58,74.25 -261.45,83.93l0 188.02 -150.91 0 0 -188.02c-146.06,-13.72 -263.07,-59.72 -353.45,-137.18 -89.57,-77.47 -134.76,-179.96 -134.76,-306.65l283.24 0c4.85,60.52 24.21,110.55 58.11,150.09 33.89,39.55 83.11,64.56 146.06,75.86l0 -511.62c-104.1,-26.63 -188.03,-53.26 -253.39,-79.89 -65.36,-27.44 -120.24,-70.2 -166.23,-129.11 -46,-58.91 -68.6,-139.61 -68.6,-241.28 0,-128.31 45.19,-234.83 134.76,-319.56 89.58,-84.73 207.4,-133.96 353.46,-147.68l0 -188.02 150.9 -0.01 0 188.03c136.38,12.1 246.13,55.68 329.24,129.11 83.12,73.44 129.93,175.12 140.42,303.42l-283.25 0c-4.84,-47.61 -23.4,-91.18 -55.68,-129.11 -32.28,-37.93 -75.85,-63.75 -129.92,-77.47l0 501.94c104.1,25.01 188.02,50.84 253.39,77.46 65.36,27.44 120.23,69.4 164.62,127.5 44.38,58.11 66.97,138 66.97,240.48 0.81,76.66 -18.55,150.1 -56.48,217.88l0 0zm-740.8 -790.02c37.93,35.51 92,64.56 161.4,86.34l0 -469.65c-66.98,8.07 -119.43,31.47 -158.98,71.82 -39.54,40.35 -58.91,94.41 -58.91,163.01 -0.8,62.94 18.56,112.97 56.49,148.48l0 0zm472.88 744.83c38.74,-44.38 58.11,-97.64 58.11,-158.97 0,-61.33 -19.37,-110.56 -57.3,-145.26 -37.92,-34.7 -91.99,-62.94 -161.39,-84.73l0 471.27c68.59,-10.49 121.85,-37.92 160.58,-82.31z"/>
    </g>
   </g>
  </g>
 </g>
</svg>
