<?xml version="1.0" encoding="utf-8"?>
<!-- Generator: Adobe Illustrator 27.5.0, SVG Export Plug-In . SVG Version: 6.00 Build 0)  -->
<svg version="1.1" xmlns="http://www.w3.org/2000/svg" xmlns:xlink="http://www.w3.org/1999/xlink" x="0px" y="0px"
	 viewBox="0 0 500 500" style="enable-background:new 0 0 500 500;" xml:space="preserve">
<g id="Floor">
	<ellipse id="Floor_17_" style="fill:#F5F5F5;" cx="249.048" cy="309.876" rx="235.981" ry="149.105"/>
</g>
<g id="Shadows">
	<path id="Shadow_26_" style="fill:#E0E0E0;" d="M284.086,398.129c-13.276,7.665-13.276,20.092,0,27.757
		c13.276,7.665,34.8,7.665,48.076,0c13.276-7.665,13.276-20.092,0-27.757C318.886,390.465,297.362,390.465,284.086,398.129z"/>
	<ellipse id="Shadow_25_" style="fill:#E0E0E0;" cx="394.004" cy="364.029" rx="27.222" ry="15.717"/>
	<path id="Shadow_27_" style="fill:#E0E0E0;" d="M137.755,370.647l-6.491-3.748c-2.046-1.181-2.046-3.096,0-4.277l87.807-50.516
		c2.046-1.181,5.363-1.181,7.408,0l6.491,3.748c2.046,1.181,2.046,3.096,0,4.277l-87.807,50.516
		C143.118,371.828,139.801,371.828,137.755,370.647z"/>
	<path id="Shadow_24_" style="fill:#E0E0E0;" d="M57.682,377.476l-16.165-9.333c-1.21-0.698-1.21-1.831,0-2.529l214.766-123.996
		c1.21-0.698,3.171-0.698,4.38,0l16.165,9.333c1.21,0.698,1.21,1.831,0,2.529L62.062,377.476
		C60.852,378.174,58.891,378.174,57.682,377.476z"/>
	<path id="Shadow_23_" style="fill:#E0E0E0;" d="M283.666,263.446l-26.438-15.264c-1.21-0.698-1.21-1.831,0-2.529l74.377-42.94
		c1.21-0.698,3.171-0.698,4.38,0l26.437,15.263c1.21,0.698,1.21,1.831,0,2.529l-74.376,42.941
		C286.837,264.145,284.876,264.145,283.666,263.446z"/>
	<path id="Shadow_22_" style="fill:#E0E0E0;" d="M281.384,206.405l41.913,24.198c1.555,0.898,4.076,0.898,5.631,0l57.906-33.776
		c1.555-0.898,1.555-2.353,0-3.251l-41.912-24.198c-1.555-0.898-4.076-0.898-5.631,0l-57.906,33.777
		C279.829,204.052,279.829,205.507,281.384,206.405z"/>
</g>
<g id="Plants">
	<g id="Plants_11_">
		<g id="XMLID_4340_">
			<g id="XMLID_4411_">
				<path id="XMLID_4412_" style="fill:#27DEBF;" d="M57,336.913c0,0-0.535-11.243-5.516-20.27
					c-4.981-9.026-12.253-14.934-19.333-15.965c-7.08-1.031-13.259,5.139-5.94,10.136c7.319,4.998,20.546,10.476,25.666,27.704
					L57,336.913z"/>
			</g>
			<g id="XMLID_4434_" style="opacity:0.2;">
				<path id="XMLID_4443_" d="M57,336.913c0,0-0.535-11.243-5.516-20.27c-4.981-9.026-12.253-14.934-19.333-15.965
					c-7.08-1.031-13.259,5.139-5.94,10.136c7.319,4.998,20.546,10.476,25.666,27.704L57,336.913z"/>
			</g>
			<g id="XMLID_4342_">
				<path id="XMLID_4345_" style="fill:#FFFFFF;" d="M55.104,333.878c0.026-0.003,0.052-0.008,0.077-0.017
					c0.2-0.066,0.308-0.281,0.242-0.481c-6.293-18.991-20.083-27.655-26.496-29.582c-0.2-0.062-0.413,0.054-0.475,0.255
					c-0.06,0.202,0.053,0.414,0.255,0.475c6.281,1.888,19.797,10.4,25.992,29.092C54.757,333.794,54.929,333.898,55.104,333.878z"/>
			</g>
		</g>
		<g id="XMLID_4332_">
			<g id="XMLID_4337_">
				<g id="XMLID_4338_">
					<path id="XMLID_4339_" style="fill:#27DEBF;" d="M16.783,332.271c0.583,1.589,2.216,2.504,3.744,3.24
						c1.519,0.729,3.184,1.525,3.936,3.041c1.514,3.062-1.563,7.024,0.081,10.017c0.69,1.255,2.079,1.983,3.469,2.328
						c1.154,0.296,2.345,0.372,3.523,0.55c0.571,0.026,1.138,0.021,1.693-0.02c1.642-0.129,3.411-0.089,4.846,0.841
						c2.257,1.472,2.783,4.479,4.056,6.855c1.527,2.845,4.428,4.833,7.57,5.473c1.045,0.209,2.992,0.527,4.104-0.001
						c0.088-0.041,0.16-0.08,0.231-0.127c0.007-0.001,0.014-0.009,0.021-0.018c0.158-0.156,0.358-0.356,0.444-0.466
						c0.021-0.018,0.034-0.042,0.046-0.067c0.516-1.502-0.058-3.139,0.019-4.72c0.004-0.1,0.008-0.193,0.021-0.286
						c0.186-1.832,0.358-3.655,0.521-5.484c0.308-3.365,0.568-6.74,0.767-10.116c0.121-2.193,0.543-4.574-0.249-6.699
						c-0.877-2.338-3.427-2.556-4.245-4.846c-0.328-0.913-0.471-1.878-0.785-2.801c-0.943-2.706-3.523-4.777-6.377-5.105
						c-4.441-0.52-8.678,2.826-13.108,2.205c-1.147-0.166-2.247-0.591-3.369-0.875c-3.566-0.913-7.805-0.16-10.036,2.761
						C16.776,329.173,16.255,330.829,16.783,332.271z"/>
				</g>
			</g>
			<g id="XMLID_4335_">
				<path id="XMLID_4336_" style="fill:#FFFFFF;" d="M55.376,356.923c0.01-0.001,0.021-0.003,0.031-0.005
					c0.206-0.04,0.341-0.241,0.299-0.448c-4.638-23.508-28.76-28.449-34.482-28.412c-0.207,0.003-0.379,0.173-0.379,0.383
					c0.001,0.21,0.173,0.38,0.383,0.379c5.597-0.036,29.192,4.798,33.731,27.798C54.998,356.815,55.181,356.946,55.376,356.923z"/>
			</g>
			<g id="XMLID_4333_">
				<path id="XMLID_4334_" style="fill:#FFFFFF;" d="M29.101,343.437c0.075-0.009,0.147-0.04,0.208-0.093
					c0.065-0.058,6.676-5.77,16.873-3.577c0.206,0.041,0.409-0.086,0.453-0.292c0.044-0.206-0.087-0.409-0.292-0.453
					c-10.591-2.276-17.47,3.691-17.539,3.751c-0.158,0.14-0.172,0.38-0.033,0.538C28.857,343.407,28.981,343.451,29.101,343.437z"/>
			</g>
		</g>
	</g>
</g>
<g id="Board">
	<g id="XMLID_4591_">
		<g id="XMLID_4631_">
			<polygon id="XMLID_4639_" style="fill:#27DEBF;" points="68.024,362.194 267.481,247.037 267.481,78.344 68.024,193.5 			"/>
		</g>
		<g id="XMLID_4629_">
			<polygon id="XMLID_4630_" style="fill:#37474F;" points="59.89,188.805 68.024,193.5 267.481,78.344 275.614,64.257 			"/>
		</g>
		<g id="XMLID_4606_">
			<polygon id="XMLID_4607_" style="fill:#37474F;" points="275.614,251.701 275.614,64.225 267.481,78.344 267.481,247.037 			"/>
		</g>
		<g id="XMLID_4604_">
			<polygon id="XMLID_4605_" style="fill:#37474F;" points="59.89,188.805 68.024,193.5 68.024,362.194 59.891,376.281 			"/>
		</g>
		<g id="XMLID_4602_">
			<polygon id="XMLID_4603_" style="fill:#37474F;" points="68.024,362.194 267.481,247.037 275.614,251.734 59.891,376.281 			"/>
		</g>
		<g id="XMLID_4600_" style="opacity:0.5;">
			<polygon id="XMLID_4601_" style="fill:#455A64;" points="59.89,188.805 68.024,193.5 267.481,78.344 275.614,64.257 			"/>
		</g>
		<g id="XMLID_4598_" style="opacity:0.5;">
			<polygon id="XMLID_4599_" style="fill:#455A64;" points="68.024,362.194 267.481,247.037 275.614,251.734 59.891,376.281 			"/>
		</g>
		<g id="XMLID_4596_">
			<polygon id="XMLID_4597_" style="fill:#455A64;" points="275.614,64.257 270.191,61.127 54.468,185.674 59.89,188.805 			"/>
		</g>
		<g id="XMLID_4594_">
			<polygon id="XMLID_4595_" style="fill:#263238;" points="54.468,185.674 59.89,188.805 59.891,376.281 54.469,373.151 			"/>
		</g>
		<g id="XMLID_4592_" style="opacity:0.1;">
			<polygon id="XMLID_4593_" points="267.481,78.344 264.77,79.909 264.769,245.473 68.023,359.064 68.024,362.194 267.481,247.037 
							"/>
		</g>
	</g>
	<g id="XMLID_4410_">
		<polygon id="XMLID_4404_" style="opacity:0.1;" points="116.387,175.626 71.874,201.326 71.875,264.579 116.389,238.879 		"/>
		<g id="XMLID_4156_">
			<g id="XMLID_3034_">
				<polygon id="XMLID_4347_" style="fill:#FAFAFA;" points="73.586,202.31 118.1,176.61 121.525,178.587 77.012,204.287 				"/>
				<polygon id="XMLID_4385_" style="fill:#E0E0E0;" points="73.586,202.31 73.586,265.563 77.012,267.54 77.012,204.287 				"/>
				<polygon id="XMLID_1_" style="fill:#F5F5F5;" points="121.525,178.587 77.012,204.287 77.012,267.54 121.526,241.84 				"/>
			</g>
			<g id="XMLID_2888_">
				<polygon id="XMLID_2875_" style="fill:#27DEBF;" points="80.436,206.263 118.101,184.518 118.102,231.955 80.436,253.701 				
					"/>
				<polygon id="XMLID_2883_" style="opacity:0.75;fill:#FFFFFF;" points="80.436,206.263 118.101,184.518 118.102,231.955 
					80.436,253.701 				"/>
			</g>
			<polygon id="XMLID_4177_" style="fill:#27DEBF;" points="80.435,237.885 95.11,216.115 110.847,226.473 105.847,220.935 
				110.772,213.244 118.101,218.778 118.102,231.955 80.436,253.701 			"/>
			<path id="XMLID_4242_" style="fill:#27DEBF;" d="M106.038,200.801c-1.891,1.092-3.424,3.747-3.424,5.931
				c0,2.184,1.533,3.069,3.424,1.977c1.891-1.092,3.424-3.747,3.424-5.931S107.929,199.709,106.038,200.801z"/>
		</g>
		<g id="XMLID_4251_">
			<g id="XMLID_4396_">
				<path id="XMLID_4397_" style="fill:#455A64;" d="M102.135,198.253c0,0-0.029,0.027-0.086,0.08
					c-0.06,0.058-0.142,0.132-0.209,0.161c-0.159,0.1-0.237-0.023-0.385-0.094c-0.283-0.166-0.687-0.403-1.171-0.688
					c-0.485-0.284-1.051-0.615-1.65-0.984c-0.599-0.367-1.244-0.749-1.877-1.153c-0.188-0.125,0.159-0.749,0.371-0.642
					c0.666,0.346,1.319,0.713,1.937,1.049c0.618,0.334,1.188,0.659,1.677,0.937c0.489,0.277,0.896,0.509,1.182,0.67
					c0.136,0.093,0.281,0.099,0.274,0.287c0.009,0.073-0.015,0.181-0.035,0.261C102.144,198.214,102.135,198.253,102.135,198.253z"
					/>
			</g>
			<g id="XMLID_4252_">
				<g id="XMLID_4394_">
					<path id="XMLID_4395_" style="fill:#37474F;" d="M103.341,199.1c-0.908,1.571-2.386,2.421-3.946,1.577
						c-0.029-0.012-0.058-0.029-0.088-0.046c-0.012-0.006-0.023-0.012-0.035-0.023c-0.408-0.256-0.658-0.774-0.658-1.507
						c0-1.507,1.059-3.34,2.363-4.097c0.611-0.349,1.164-0.402,1.583-0.209c0.029,0.012,0.058,0.029,0.087,0.046
						c0.047,0.029,0.099,0.058,0.14,0.093C104.249,195.871,104.237,197.553,103.341,199.1z"/>
				</g>
				<path id="XMLID_4393_" style="fill:#455A64;" d="M105.243,202.207l1.75-2.991c-0.31-0.195-2.365-1.207-3.693-2.552
					c-0.021-0.025-0.044-0.045-0.066-0.067c-0.019-0.02-0.039-0.038-0.058-0.058l-0.005,0.007c-0.282-0.218-0.696-0.225-1.164,0.045
					c-0.85,0.491-1.538,1.684-1.538,2.664c0,0.49,0.172,0.834,0.45,0.995l0,0l0,0c0.087,0.05,0.188,0.076,0.294,0.089
					C103.272,200.946,104.91,201.986,105.243,202.207z"/>
				<g id="XMLID_4389_">
					<path id="XMLID_4392_" style="fill:#37474F;" d="M108.501,199.788c0-1.019-0.826-1.846-1.846-1.846
						c-0.231,0-0.451,0.048-0.655,0.125c-0.013,0.004-0.026,0.007-0.039,0.012c-0.024,0.01-0.047,0.022-0.071,0.033
						c-0.095,0.038-0.191,0.077-0.291,0.134c-1.032,0.596-1.869,2.046-1.869,3.237c0,0.173,0.022,0.326,0.056,0.468
						c0.152,0.867,0.903,1.527,1.813,1.527c1.019,0,1.845-0.826,1.845-1.846c0-0.06-0.012-0.116-0.017-0.174
						C108.06,201.166,108.501,200.53,108.501,199.788z"/>
				</g>
				<g id="XMLID_4386_">
					<path id="XMLID_4388_" style="fill:#455A64;" d="M106.655,198.852c1.032-0.596,1.869-0.113,1.869,1.079
						c0,1.192-0.837,2.641-1.869,3.237c-1.032,0.596-1.869,0.113-1.869-1.079S105.623,199.448,106.655,198.852z"/>
				</g>
			</g>
		</g>
	</g>
	<g id="XMLID_4666_">
		<polygon id="XMLID_4409_" style="opacity:0.1;" points="130.187,175.697 250.033,106.504 250.033,209.305 130.189,278.499 		"/>
		<g id="XMLID_4403_">
			<g id="XMLID_4400_">
				<g id="XMLID_2989_">
					<g id="XMLID_4683_">
						<polygon id="XMLID_4664_" style="fill:#F5F5F5;" points="135.219,178.586 255.066,109.393 255.066,212.195 135.221,281.389 
													"/>
					</g>
					<g id="XMLID_4686_">
						<polygon id="XMLID_4663_" style="fill:#E0E0E0;" points="131.795,176.61 131.795,279.41 135.221,281.389 135.219,178.586 
													"/>
					</g>
					<g id="XMLID_2987_">
						<g id="XMLID_4684_">
							<polygon id="XMLID_4662_" style="fill:#27DEBF;" points="255.066,109.393 251.642,107.416 131.795,176.61 135.219,178.586 
															"/>
						</g>
						<g id="XMLID_4685_" style="opacity:0.8;">
							<polygon id="XMLID_4661_" style="fill:#FFFFFF;" points="255.066,109.393 251.642,107.416 131.795,176.61 135.219,178.586 
															"/>
						</g>
					</g>
					<g id="XMLID_2985_">
						<g id="XMLID_2959_">
							<polygon id="XMLID_4660_" style="fill:#27DEBF;" points="131.795,176.61 135.219,178.586 135.219,198.356 131.795,196.378 
															"/>
						</g>
						<g id="XMLID_2960_" style="opacity:0.5;">
							<polygon id="XMLID_4643_" style="fill:#FFFFFF;" points="131.795,176.61 135.219,178.586 135.219,198.356 131.795,196.378 
															"/>
						</g>
					</g>
					<g id="XMLID_2980_">
						<g id="XMLID_2962_">
							<polygon id="XMLID_4641_" style="fill:#27DEBF;" points="135.219,198.356 255.066,129.163 255.066,109.393 135.219,178.586 
															"/>
						</g>
						<g id="XMLID_2964_" style="opacity:0.65;">
							<polygon id="XMLID_4575_" style="fill:#FFFFFF;" points="135.219,198.356 255.066,129.163 255.066,109.393 135.219,178.586 
															"/>
						</g>
					</g>
					<g id="XMLID_2965_">
						<g id="XMLID_2969_">
							<path id="XMLID_5165_" style="fill:#455A64;" d="M187.735,153.535l-3.129,1.807c-0.071,0.04-0.131,0.036-0.182-0.013
								c-0.051-0.049-0.077-0.127-0.077-0.235v-1.042c0-0.109,0.025-0.216,0.077-0.324c0.051-0.108,0.111-0.182,0.182-0.223
								l4.159-2.4c0.07-0.041,0.131-0.036,0.182,0.012c0.05,0.05,0.077,0.128,0.077,0.235v6.214c0,1.264-0.229,2.349-0.687,3.255
								c-0.458,0.906-1.113,1.604-1.966,2.096c-0.451,0.26-0.841,0.4-1.168,0.418c-0.328,0.018-0.598-0.059-0.812-0.229
								c-0.213-0.171-0.374-0.421-0.481-0.751c-0.109-0.329-0.172-0.715-0.191-1.153c-0.007-0.114,0.016-0.223,0.071-0.328
								c0.054-0.105,0.116-0.177,0.186-0.218l0.773-0.446c0.051-0.03,0.103-0.035,0.157-0.017c0.054,0.018,0.088,0.067,0.1,0.147
								c0.025,0.182,0.07,0.347,0.133,0.496c0.063,0.149,0.149,0.264,0.258,0.343c0.109,0.079,0.242,0.115,0.401,0.107
								c0.159-0.008,0.35-0.077,0.572-0.206c0.44-0.254,0.776-0.624,1.012-1.113c0.235-0.489,0.353-1.07,0.353-1.746V153.535z"/>
						</g>
						<g id="XMLID_2974_">
							<path id="XMLID_5162_" style="fill:#455A64;" d="M190.33,153.241c0-0.108,0.025-0.216,0.077-0.324
								c0.05-0.108,0.111-0.182,0.181-0.222l0.724-0.419c0.07-0.04,0.131-0.035,0.181,0.013c0.051,0.049,0.077,0.128,0.077,0.236
								v3.731c0,0.588,0.081,1.011,0.243,1.269c0.163,0.26,0.428,0.283,0.797,0.069c0.337-0.194,0.595-0.519,0.773-0.975
								c0.179-0.456,0.268-0.977,0.268-1.565v-3.731c0-0.108,0.025-0.215,0.077-0.324c0.05-0.107,0.111-0.181,0.181-0.222
								l0.724-0.418c0.07-0.04,0.131-0.036,0.181,0.013c0.052,0.049,0.077,0.127,0.077,0.235v6.844c0,0.109-0.025,0.216-0.077,0.324
								c-0.05,0.108-0.111,0.182-0.181,0.222l-0.724,0.419c-0.07,0.04-0.131,0.036-0.181-0.013
								c-0.052-0.049-0.077-0.128-0.077-0.235v-0.338c-0.146,0.31-0.328,0.617-0.544,0.924c-0.217,0.306-0.477,0.547-0.783,0.723
								c-0.388,0.224-0.709,0.316-0.963,0.277c-0.254-0.039-0.459-0.17-0.611-0.396c-0.152-0.226-0.261-0.527-0.324-0.907
								c-0.063-0.379-0.095-0.799-0.095-1.259V153.241z"/>
						</g>
						<g id="XMLID_2976_">
							<path id="XMLID_5159_" style="fill:#455A64;" d="M200.863,154.005c0,0.108-0.025,0.216-0.077,0.323
								c-0.05,0.109-0.111,0.183-0.181,0.222l-0.725,0.419c-0.07,0.04-0.13,0.037-0.182-0.012c-0.05-0.049-0.076-0.128-0.076-0.235
								v-3.731c0-0.588-0.089-1.006-0.267-1.256c-0.179-0.25-0.452-0.268-0.821-0.054c-0.338,0.194-0.604,0.524-0.797,0.988
								c-0.194,0.464-0.291,0.991-0.291,1.579v3.731c0,0.107-0.026,0.216-0.077,0.323c-0.051,0.109-0.111,0.182-0.181,0.222
								l-0.725,0.418c-0.071,0.041-0.13,0.037-0.182-0.012c-0.05-0.049-0.076-0.128-0.076-0.235v-6.846
								c0-0.107,0.025-0.216,0.076-0.323c0.052-0.108,0.111-0.182,0.182-0.222l0.725-0.419c0.07-0.04,0.13-0.035,0.181,0.013
								c0.05,0.048,0.077,0.128,0.077,0.235v0.337c0.165-0.349,0.359-0.672,0.581-0.966c0.223-0.296,0.487-0.531,0.792-0.707
								c0.389-0.224,0.713-0.319,0.974-0.282c0.26,0.035,0.47,0.163,0.63,0.385c0.158,0.222,0.272,0.521,0.338,0.898
								c0.067,0.378,0.1,0.797,0.1,1.257V154.005z"/>
						</g>
						<g id="XMLID_2978_">
							<path id="XMLID_5155_" style="fill:#455A64;" d="M201.884,149.994c0-0.548,0.054-1.096,0.162-1.644
								c0.109-0.547,0.264-1.058,0.467-1.533c0.203-0.476,0.45-0.899,0.739-1.271c0.29-0.374,0.613-0.662,0.969-0.868
								c0.357-0.206,0.678-0.291,0.968-0.259c0.289,0.035,0.536,0.161,0.74,0.38c0.202,0.221,0.361,0.527,0.472,0.917
								c0.111,0.392,0.166,0.836,0.166,1.337v0.66c0,0.109-0.025,0.216-0.076,0.324c-0.051,0.108-0.111,0.182-0.181,0.222
								l-3.187,1.84c0,0.225,0.03,0.407,0.09,0.543c0.06,0.136,0.142,0.233,0.244,0.291c0.101,0.059,0.219,0.08,0.353,0.061
								c0.133-0.018,0.27-0.068,0.41-0.148c0.203-0.119,0.369-0.245,0.496-0.382c0.127-0.137,0.233-0.278,0.315-0.425
								c0.07-0.118,0.127-0.206,0.172-0.26c0.044-0.055,0.105-0.105,0.181-0.149l0.762-0.44c0.071-0.041,0.133-0.037,0.186,0.01
								c0.054,0.048,0.079,0.127,0.072,0.238c-0.007,0.141-0.056,0.346-0.148,0.614c-0.092,0.269-0.23,0.559-0.415,0.871
								c-0.185,0.312-0.412,0.62-0.682,0.923c-0.27,0.303-0.583,0.557-0.939,0.762c-0.356,0.206-0.679,0.296-0.969,0.273
								c-0.289-0.023-0.536-0.153-0.739-0.388c-0.203-0.235-0.359-0.564-0.467-0.985
								C201.938,151.086,201.884,150.581,201.884,149.994z M204.221,146.44c-0.185,0.107-0.342,0.24-0.473,0.398
								c-0.13,0.158-0.24,0.329-0.329,0.512c-0.089,0.184-0.157,0.37-0.205,0.56c-0.048,0.189-0.078,0.361-0.09,0.515l2.156-1.245
								c-0.012-0.14-0.037-0.28-0.072-0.422c-0.035-0.142-0.092-0.255-0.172-0.342c-0.079-0.086-0.184-0.133-0.314-0.141
								C204.592,146.269,204.425,146.323,204.221,146.44z"/>
						</g>
					</g>
					<g id="XMLID_4146_">
						<g id="XMLID_4316_">
							<path id="XMLID_5152_" style="fill:#455A64;" d="M143.353,203.544c0,1.092,0.816,1.505,1.824,0.923l8.986-5.186
								c1.008-0.582,1.825-1.939,1.825-3.03s-0.817-1.505-1.825-0.923l-8.986,5.186C144.17,201.096,143.353,202.452,143.353,203.544
								z"/>
						</g>
						<g id="XMLID_4312_">
							<path id="XMLID_5150_" style="fill:#455A64;" d="M158.51,194.792c0,1.092,0.816,1.505,1.824,0.923l8.987-5.186
								c1.008-0.582,1.825-1.939,1.825-3.03c0-1.092-0.817-1.505-1.825-0.923l-8.986,5.186
								C159.328,192.344,158.511,193.7,158.51,194.792z"/>
						</g>
						<g id="XMLID_4308_">
							<path id="XMLID_5148_" style="fill:#455A64;" d="M173.668,186.04c0,1.092,0.816,1.505,1.824,0.923l8.987-5.186
								c1.008-0.582,1.825-1.939,1.825-3.03c0-1.092-0.817-1.505-1.825-0.923l-8.986,5.186
								C174.486,183.592,173.668,184.948,173.668,186.04z"/>
						</g>
						<g id="XMLID_4302_">
							<path id="XMLID_5146_" style="fill:#455A64;" d="M188.826,177.288c0,1.092,0.816,1.505,1.824,0.923l8.987-5.186
								c1.008-0.582,1.825-1.939,1.825-3.03c0-1.092-0.817-1.505-1.825-0.923l-8.986,5.186
								C189.644,174.84,188.826,176.196,188.826,177.288z"/>
						</g>
						<g id="XMLID_4299_">
							<path id="XMLID_5144_" style="fill:#455A64;" d="M203.984,168.536c0,1.092,0.816,1.505,1.824,0.923l8.987-5.185
								c1.008-0.582,1.825-1.939,1.825-3.03c0-1.092-0.817-1.505-1.825-0.923l-8.986,5.186
								C204.801,166.088,203.984,167.444,203.984,168.536z"/>
						</g>
						<g id="XMLID_4297_">
							<path id="XMLID_5142_" style="fill:#455A64;" d="M219.141,159.784c0,1.092,0.816,1.505,1.824,0.923l8.986-5.186
								c1.008-0.582,1.825-1.939,1.825-3.03c0-1.092-0.817-1.505-1.825-0.923l-8.986,5.186
								C219.959,157.336,219.142,158.693,219.141,159.784z"/>
						</g>
						<g id="XMLID_4296_">
							<path id="XMLID_5140_" style="fill:#455A64;" d="M234.299,151.032c0,1.092,0.816,1.505,1.824,0.923l8.987-5.186
								c1.008-0.582,1.825-1.939,1.825-3.03c0-1.092-0.817-1.505-1.825-0.923l-8.986,5.186
								C235.117,148.584,234.299,149.941,234.299,151.032z"/>
						</g>
					</g>
					<g id="XMLID_2983_">
						<g id="XMLID_4290_">
							<path id="XMLID_4640_" style="fill:#E0E0E0;" d="M248.218,208.662c-0.233,0-0.421-0.189-0.421-0.421v-55.355
								c0-0.233,0.189-0.421,0.421-0.421c0.233,0,0.422,0.189,0.422,0.421v55.355C248.64,208.473,248.451,208.662,248.218,208.662z"
								/>
						</g>
						<g id="XMLID_4289_">
							<path id="XMLID_4590_" style="fill:#E0E0E0;" d="M233.055,217.418c-0.233,0-0.422-0.188-0.422-0.421l-0.001-55.355
								c0-0.233,0.188-0.422,0.421-0.422s0.422,0.189,0.422,0.422l0.001,55.355C233.476,217.229,233.288,217.418,233.055,217.418z"
								/>
						</g>
						<g id="XMLID_4285_">
							<path id="XMLID_4589_" style="fill:#E0E0E0;" d="M217.89,226.173c-0.233,0-0.421-0.189-0.421-0.422l-0.001-55.355
								c0-0.233,0.188-0.421,0.421-0.421s0.422,0.189,0.422,0.421l0.001,55.355C218.312,225.984,218.123,226.173,217.89,226.173z"/>
						</g>
						<g id="XMLID_4284_">
							<path id="XMLID_4588_" style="fill:#E0E0E0;" d="M202.726,234.928c-0.233,0-0.421-0.189-0.421-0.422l-0.001-55.355
								c0-0.233,0.188-0.421,0.421-0.421s0.421,0.188,0.421,0.421l0.001,55.355C203.147,234.739,202.959,234.928,202.726,234.928z"
								/>
						</g>
						<g id="XMLID_4200_">
							<path id="XMLID_4587_" style="fill:#E0E0E0;" d="M187.562,243.683c-0.233,0-0.421-0.189-0.421-0.421l-0.002-55.356
								c0-0.233,0.189-0.421,0.421-0.421c0.233,0,0.421,0.189,0.421,0.421l0.002,55.356
								C187.984,243.495,187.795,243.683,187.562,243.683z"/>
						</g>
						<g id="XMLID_4199_">
							<path id="XMLID_4586_" style="fill:#E0E0E0;" d="M172.398,252.438c-0.233,0-0.421-0.189-0.421-0.422l-0.001-55.355
								c0-0.233,0.189-0.421,0.422-0.421c0.233,0,0.421,0.188,0.421,0.421l0.001,55.355
								C172.819,252.249,172.631,252.438,172.398,252.438z"/>
						</g>
						<g id="XMLID_4147_">
							<path id="XMLID_4585_" style="fill:#E0E0E0;" d="M157.233,261.193c-0.233,0-0.421-0.189-0.421-0.422l-0.001-55.355
								c0-0.233,0.189-0.422,0.422-0.422c0.233,0,0.421,0.189,0.421,0.422l0.001,55.355
								C157.655,261.004,157.466,261.193,157.233,261.193z"/>
						</g>
						<g id="XMLID_3014_">
							<path id="XMLID_4584_" style="fill:#E0E0E0;" d="M142.07,269.949c-0.233,0-0.421-0.189-0.421-0.422l-0.002-55.356
								c0-0.233,0.189-0.422,0.422-0.422c0.233,0,0.421,0.189,0.421,0.422l0.002,55.356
								C142.491,269.76,142.303,269.949,142.07,269.949z"/>
						</g>
						<g id="XMLID_2981_">
							<path id="XMLID_4583_" style="fill:#E0E0E0;" d="M142.068,228.432c-0.145,0-0.287-0.076-0.365-0.211
								c-0.117-0.202-0.048-0.459,0.154-0.576l106.149-61.286c0.2-0.118,0.459-0.048,0.576,0.154
								c0.117,0.202,0.048,0.459-0.154,0.575l-106.149,61.286C142.212,228.414,142.14,228.432,142.068,228.432z"/>
						</g>
						<g id="XMLID_2982_">
							<path id="XMLID_4582_" style="fill:#E0E0E0;" d="M142.068,242.27c-0.145,0-0.287-0.076-0.365-0.211
								c-0.117-0.202-0.048-0.459,0.154-0.576l106.149-61.285c0.2-0.119,0.459-0.049,0.576,0.154
								c0.117,0.202,0.048,0.459-0.154,0.575l-106.149,61.285C142.212,242.252,142.14,242.27,142.068,242.27z"/>
						</g>
						<g id="XMLID_2984_">
							<path id="XMLID_4581_" style="fill:#E0E0E0;" d="M142.068,256.109c-0.145,0-0.287-0.076-0.365-0.211
								c-0.117-0.202-0.048-0.459,0.154-0.576l106.149-61.285c0.2-0.118,0.459-0.048,0.576,0.154
								c0.117,0.202,0.048,0.459-0.154,0.575l-106.149,61.285C142.212,256.091,142.14,256.109,142.068,256.109z"/>
						</g>
						<g id="XMLID_2968_">
							<path id="XMLID_4576_" style="fill:#E0E0E0;" d="M142.07,269.949c-0.072,0-0.146-0.019-0.211-0.057
								c-0.13-0.075-0.211-0.214-0.211-0.365l-0.002-55.356c0-0.151,0.081-0.29,0.211-0.365l106.15-61.285
								c0.13-0.076,0.291-0.076,0.421,0c0.13,0.075,0.211,0.214,0.211,0.365v55.355c0,0.151-0.081,0.29-0.211,0.365l-106.148,61.286
								C142.215,269.93,142.142,269.949,142.07,269.949z M142.49,214.415l0.002,54.382l105.305-60.8v-54.381L142.49,214.415z"/>
						</g>
					</g>
					<g id="XMLID_4398_">
						<g id="XMLID_4295_">
							<path id="XMLID_5110_" style="fill:#F2A38F;" d="M177.715,223.004l0.859,1.826c0.054,0.115,0.159,0.156,0.28,0.11
								l1.922-0.737c0.305-0.117,0.427,0.313,0.206,0.727l-1.39,2.61c-0.088,0.165-0.128,0.352-0.107,0.501l0.328,2.362
								c0.052,0.375-0.267,0.868-0.54,0.835l-1.719-0.212c-0.108-0.013-0.238,0.061-0.346,0.2l-1.719,2.197
								c-0.273,0.349-0.592,0.224-0.54-0.211l0.328-2.741c0.021-0.173-0.019-0.314-0.107-0.377l-1.39-1.004
								c-0.221-0.16-0.099-0.73,0.206-0.965l1.922-1.482c0.121-0.093,0.226-0.255,0.28-0.433l0.859-2.818
								C177.185,222.942,177.579,222.714,177.715,223.004z"/>
						</g>
						<g id="XMLID_4401_">
							<path id="XMLID_5108_" style="fill:#F2A38F;" d="M233.04,183.845c-0.094-1.686-0.74-3.355-2.464-3.971
								c-2.114-0.755-3.887,0.921-5.202,2.336c-0.347,0.373,0.281,0.549,0.554,0.291c1.359-1.286,3.873-2.57,5.336-0.849
								c1.434,1.687,0.697,4.236-0.041,6.099c-1.229,3.101-4.358,6.085-7.972,5.815c-7.884-0.588,0.647-14.461,5.315-15.246
								c0.377-0.063,0.64-0.652,0.138-0.734c-2.352-0.385-4.029,1.714-5.499,3.296c-1.639,1.763-2.93,3.735-3.779,6.003
								c-1.568,4.184,0.751,9.325,5.861,7.693C229.753,193.15,233.309,188.691,233.04,183.845z"/>
						</g>
						<g id="XMLID_4407_">
							<path id="XMLID_5106_" style="fill:#F2A38F;" d="M160.949,246.083c-0.437-0.77-1.087-1.262-1.646-1.917
								c-0.219-0.256-0.773,0.055-0.64,0.375c0.318,0.766,0.983,1.188,1.389,1.87c0.065,0.11,0.142,0.227,0.222,0.347
								c-0.961-0.782-3.041-1.078-3.885-1.286c-2.756-0.68-5.356-0.197-7.951,0.723c-0.248,0.088-0.149,0.329,0.069,0.351
								c0.465,0.047,0.706-0.098,1.153-0.205c1.341-0.32,2.772-0.353,4.151-0.3c1.323,0.051,4.471,0.497,5.837,1.504
								c-1.39-0.23-2.846-0.134-3.706,0.904c-0.098,0.118-0.111,0.341,0.091,0.367c0.874,0.109,1.613-0.219,2.494-0.188
								c1.042,0.036,1.993,0.175,2.98,0.518c0.38,0.132,0.661-0.266,0.646-0.605C162.112,247.585,161.398,246.875,160.949,246.083z"
								/>
						</g>
					</g>
				</g>
				<g id="XMLID_4319_">
					<g id="XMLID_4328_">
						<g id="XMLID_4329_">
							<path id="XMLID_5102_" style="fill:#455A64;" d="M253.225,121.96c0,0-0.029,0.027-0.086,0.08
								c-0.06,0.058-0.142,0.132-0.209,0.161c-0.159,0.1-0.237-0.023-0.385-0.094c-0.283-0.166-0.687-0.403-1.171-0.688
								c-0.485-0.284-1.051-0.615-1.65-0.983c-0.599-0.367-1.244-0.749-1.877-1.153c-0.188-0.125,0.159-0.748,0.371-0.642
								c0.666,0.346,1.319,0.713,1.937,1.049c0.618,0.334,1.188,0.659,1.677,0.937c0.489,0.277,0.896,0.509,1.182,0.67
								c0.136,0.093,0.281,0.099,0.274,0.287c0.009,0.073-0.015,0.181-0.035,0.262C253.234,121.921,253.225,121.96,253.225,121.96z"
								/>
						</g>
					</g>
					<g id="XMLID_4320_">
						<g id="XMLID_4326_">
							<g id="XMLID_4327_">
								<path id="XMLID_5099_" style="fill:#37474F;" d="M254.431,122.808c-0.908,1.571-2.386,2.421-3.946,1.577
									c-0.029-0.012-0.058-0.029-0.088-0.046c-0.012-0.006-0.023-0.012-0.035-0.023c-0.408-0.256-0.658-0.774-0.658-1.507
									c0-1.507,1.059-3.34,2.363-4.097c0.611-0.349,1.164-0.402,1.583-0.21c0.029,0.012,0.058,0.029,0.087,0.047
									c0.047,0.029,0.099,0.058,0.139,0.093C255.339,119.578,255.328,121.26,254.431,122.808z"/>
							</g>
						</g>
						<g id="XMLID_4325_">
							<path id="XMLID_5096_" style="fill:#455A64;" d="M256.334,125.914l1.75-2.991c-0.31-0.195-2.365-1.207-3.693-2.552
								c-0.02-0.025-0.044-0.045-0.066-0.067c-0.019-0.02-0.039-0.038-0.058-0.058l-0.004,0.007
								c-0.282-0.218-0.696-0.226-1.164,0.045c-0.849,0.491-1.538,1.684-1.538,2.664c0,0.49,0.172,0.834,0.45,0.995l0,0l0,0
								c0.087,0.05,0.188,0.076,0.294,0.089C254.362,124.653,256.001,125.693,256.334,125.914z"/>
						</g>
						<g id="XMLID_4323_">
							<g id="XMLID_4324_">
								<path id="XMLID_5094_" style="fill:#37474F;" d="M259.591,123.495c0-1.019-0.826-1.845-1.846-1.845
									c-0.231,0-0.451,0.048-0.655,0.125c-0.013,0.004-0.026,0.007-0.039,0.012c-0.024,0.01-0.047,0.022-0.071,0.033
									c-0.096,0.038-0.191,0.077-0.291,0.134c-1.032,0.596-1.869,2.046-1.869,3.237c0,0.173,0.022,0.326,0.056,0.468
									c0.151,0.867,0.903,1.527,1.813,1.527c1.019,0,1.845-0.826,1.845-1.845c0-0.06-0.012-0.116-0.017-0.174
									C259.15,124.873,259.591,124.237,259.591,123.495z"/>
							</g>
						</g>
						<g id="XMLID_4321_">
							<g id="XMLID_4322_">
								<path id="XMLID_5091_" style="fill:#455A64;" d="M257.746,122.559c1.032-0.596,1.869-0.113,1.869,1.079
									c0,1.192-0.837,2.641-1.869,3.237c-1.032,0.596-1.869,0.113-1.869-1.079C255.877,124.604,256.714,123.155,257.746,122.559z"
									/>
							</g>
						</g>
					</g>
				</g>
				<g id="XMLID_4348_">
					<g id="XMLID_4382_">
						<g id="XMLID_4384_">
							<path id="XMLID_5086_" style="fill:#455A64;" d="M146.471,183.245c0,0-0.029,0.027-0.086,0.08
								c-0.06,0.058-0.142,0.133-0.209,0.161c-0.159,0.1-0.237-0.023-0.385-0.094c-0.283-0.166-0.687-0.403-1.171-0.688
								c-0.485-0.284-1.051-0.615-1.65-0.984c-0.6-0.367-1.244-0.749-1.877-1.153c-0.188-0.125,0.159-0.749,0.371-0.642
								c0.666,0.346,1.319,0.713,1.936,1.049c0.618,0.334,1.188,0.659,1.677,0.937c0.489,0.277,0.896,0.509,1.182,0.67
								c0.136,0.093,0.281,0.099,0.274,0.287c0.009,0.073-0.015,0.181-0.035,0.262C146.48,183.206,146.471,183.245,146.471,183.245z
								"/>
						</g>
					</g>
					<g id="XMLID_4349_">
						<g id="XMLID_4380_">
							<g id="XMLID_4381_">
								<path id="XMLID_5083_" style="fill:#37474F;" d="M147.677,184.093c-0.908,1.571-2.386,2.421-3.946,1.577
									c-0.029-0.012-0.058-0.029-0.088-0.047c-0.012-0.006-0.023-0.012-0.035-0.023c-0.408-0.256-0.658-0.774-0.658-1.507
									c0-1.507,1.059-3.34,2.363-4.097c0.611-0.349,1.164-0.402,1.583-0.21c0.029,0.012,0.058,0.029,0.087,0.046
									c0.047,0.029,0.099,0.058,0.14,0.093C148.585,180.863,148.573,182.545,147.677,184.093z"/>
							</g>
						</g>
						<g id="XMLID_4378_">
							<path id="XMLID_5080_" style="fill:#455A64;" d="M149.58,187.2l1.75-2.991c-0.31-0.195-2.365-1.207-3.693-2.552
								c-0.021-0.025-0.044-0.045-0.066-0.067c-0.019-0.02-0.039-0.038-0.058-0.058l-0.004,0.007
								c-0.282-0.218-0.696-0.225-1.164,0.045c-0.849,0.49-1.538,1.683-1.538,2.664c0,0.49,0.172,0.834,0.45,0.995l0,0l0,0
								c0.087,0.051,0.188,0.076,0.294,0.089C147.608,185.939,149.247,186.978,149.58,187.2z"/>
						</g>
						<g id="XMLID_4353_">
							<g id="XMLID_4357_">
								<path id="XMLID_5078_" style="fill:#37474F;" d="M152.837,184.78c0-1.019-0.826-1.846-1.846-1.846
									c-0.231,0-0.451,0.048-0.655,0.125c-0.013,0.004-0.025,0.007-0.039,0.012c-0.024,0.01-0.047,0.022-0.071,0.033
									c-0.095,0.038-0.191,0.077-0.291,0.134c-1.032,0.596-1.869,2.046-1.869,3.237c0,0.173,0.022,0.326,0.056,0.468
									c0.152,0.867,0.903,1.527,1.813,1.527c1.019,0,1.845-0.826,1.845-1.846c0-0.06-0.012-0.116-0.017-0.174
									C152.396,186.158,152.837,185.523,152.837,184.78z"/>
							</g>
						</g>
						<g id="XMLID_4350_">
							<g id="XMLID_4352_">
								<path id="XMLID_5075_" style="fill:#455A64;" d="M150.992,183.844c1.032-0.596,1.869-0.113,1.869,1.079
									c0,1.192-0.837,2.641-1.869,3.237c-1.032,0.596-1.869,0.113-1.869-1.079S149.96,184.44,150.992,183.844z"/>
							</g>
						</g>
					</g>
				</g>
			</g>
		</g>
	</g>
	<g id="XMLID_4402_">
		<polygon id="XMLID_4250_" style="opacity:0.1;" points="75.299,287.737 75.299,339.138 117.884,314.552 117.884,263.151 		"/>
		<g id="XMLID_4406_">
			<g id="XMLID_14190_">
				<path id="XMLID_4408_" style="fill:#455A64;" d="M122.779,317.089c0,0-25.137,14.078-28.297,15.828
					c-3.16,1.75-5.222-3.323-5.246-6.41c-3.16,2.017-9.636,3.284-9.962-0.744l-2.259-29.285l42.578-24.589L122.779,317.089z"/>
				<polygon id="XMLID_14191_" style="fill:#37474F;" points="119.595,271.893 77.014,296.477 77.01,288.588 119.595,264.001 				
					"/>
				<polygon id="XMLID_4399_" style="fill:#37474F;" points="80.612,327.912 92.268,333.057 88.641,323.556 				"/>
			</g>
			<g id="XMLID_4405_">
				<g id="XMLID_4288_">
					<g id="XMLID_3005_">
						<path id="XMLID_2685_" style="fill:#FAFAFA;" d="M94.979,298.974c-0.318,1.192-1.007,1.675-1.46,0.947
							c-0.32-0.514-0.281-1.665-0.282-2.482c-0.002-2.059-0.061-4.081-0.061-6.139c0-0.642-0.551-0.087-0.557,0.469
							c0,1.845-0.035,3.72-0.019,5.557c-0.41-1.47-2.182,0.32-2.923,1.71c-0.764,1.433-1.787,4.701-0.501,5.047
							c1.117,0.301,2.827-1.885,3.651-3.804c0.095,0.397,0.231,0.732,0.424,0.927c0.716,0.723,2.112-0.827,2.121-2.422
							C95.376,298.435,95.053,298.695,94.979,298.974z M92.4,299.05c-0.023,0.414-0.124,0.868-0.276,1.286
							c-0.242,0.668-0.599,1.254-0.978,1.752c-0.281,0.369-0.585,0.704-0.896,0.869s-0.631,0.137-0.798-0.17
							c-0.233-0.428-0.118-1.249,0.095-1.953c0.319-1.057,0.872-2.228,1.535-2.76c0.588-0.472,1.083-0.532,1.271,0.293
							C92.4,298.569,92.414,298.803,92.4,299.05z"/>
						<path id="XMLID_2679_" style="fill:#FAFAFA;" d="M109.736,289.404c-0.318,1.192-1.007,1.675-1.46,0.947
							c-0.32-0.514-0.281-1.665-0.282-2.482c-0.002-2.059-0.061-4.081-0.061-6.14c0-0.642-0.551-0.087-0.556,0.469
							c0,1.845-0.035,3.72-0.019,5.557c-0.41-1.469-2.183,0.321-2.923,1.71c-0.764,1.433-1.787,4.701-0.501,5.047
							c1.117,0.301,2.827-1.885,3.652-3.804c0.095,0.397,0.23,0.732,0.424,0.927c0.717,0.723,2.112-0.827,2.122-2.422
							C110.133,288.865,109.81,289.125,109.736,289.404z M107.157,289.48c-0.023,0.414-0.124,0.868-0.276,1.286
							c-0.242,0.668-0.599,1.254-0.978,1.752c-0.281,0.369-0.585,0.704-0.896,0.869c-0.311,0.165-0.631,0.137-0.798-0.17
							c-0.233-0.428-0.118-1.249,0.095-1.953c0.319-1.057,0.872-2.228,1.535-2.76c0.588-0.472,1.083-0.532,1.271,0.293
							C107.158,288.999,107.171,289.233,107.157,289.48z"/>
						<path id="XMLID_2688_" style="fill:#FAFAFA;" d="M98.493,296.422c-0.507,0.868-0.773,1.822-1.491,2.304
							c-0.241,0.162-0.549,0.284-0.768,0.271c-0.518-0.031-0.518-0.739-0.496-1.474c0.523-0.244,1.037-0.686,1.455-1.497
							c0.393-0.761,0.674-1.679,0.611-2.469c-0.174-2.193-1.928,0.402-2.342,1.846c-0.166,0.58-0.244,1.18-0.281,1.766
							c-0.026,0.023-0.054,0.046-0.077,0.068c-0.137,0.129-0.283,0.551-0.076,0.513c0.043-0.008,0.086-0.02,0.13-0.03
							c-0.007,0.308-0.009,0.61-0.006,0.896c0.012,0.918,0.275,1.434,0.844,1.467c0.607,0.035,1.325-0.459,1.878-1.304
							c0.411-0.628,0.98-1.571,0.935-2.369C98.796,296.184,98.6,296.238,98.493,296.422z M95.868,295.817
							c0.114-0.512,1.125-2.943,1.401-1.756c0.282,1.212-0.722,2.058-1.508,2.657C95.773,296.425,95.799,296.129,95.868,295.817z"/>
						<path id="XMLID_4293_" style="fill:#FAFAFA;" d="M104.269,294.045c-0.127-0.061-0.237-0.161-0.336-0.284
							c-0.012-0.015-0.026-0.031-0.04-0.046c-0.03,0.041-0.059,0.078-0.084,0.105c-0.544,0.589-0.947,0.557-1.136-0.113
							c-0.199-0.701-0.168-1.706-0.156-2.611c0.002-0.105,0.004-0.214,0.005-0.315l-0.001,0.001c0-0.043,0.002-0.09,0.002-0.132
							c0-0.428-0.307-0.281-0.473,0.038c-0.486-2.239-4.08,3.781-3.352,6.192c0.394,1.304,1.667,0.518,2.497-0.477
							c0.439-0.525,0.726-1.164,0.922-1.846c0.112,0.434,0.282,0.785,0.564,0.949c0.499,0.291,1.244-0.513,1.661-1.448
							C104.318,294.051,104.292,294.056,104.269,294.045z M101.791,293.567c-0.147,0.78-0.583,1.599-1,2.144
							c-0.301,0.393-1.005,0.783-1.273,0.602c-0.146-0.099-0.206-0.373-0.195-0.669c0.011-0.295,0.083-0.612,0.161-0.921
							c0.198-0.78,0.455-1.577,0.838-2.233c0.371-0.634,1.07-1.347,1.465-1.041C102.108,291.697,101.904,292.97,101.791,293.567z"/>
					</g>
					<g id="XMLID_2677_">
						<path id="XMLID_2689_" style="fill:#FAFAFA;" d="M106.596,303.545c-0.507,0.868-0.773,1.822-1.491,2.304
							c-0.241,0.162-0.549,0.284-0.768,0.271c-0.518-0.031-0.518-0.739-0.496-1.474c0.523-0.244,1.037-0.686,1.455-1.497
							c0.393-0.761,0.674-1.679,0.611-2.469c-0.174-2.193-1.928,0.402-2.342,1.846c-0.166,0.58-0.244,1.18-0.281,1.766
							c-0.026,0.022-0.054,0.046-0.077,0.068c-0.137,0.129-0.283,0.551-0.076,0.513c0.043-0.008,0.086-0.02,0.129-0.03
							c-0.007,0.308-0.009,0.61-0.005,0.896c0.012,0.918,0.275,1.434,0.844,1.467c0.607,0.035,1.325-0.459,1.878-1.304
							c0.411-0.628,0.98-1.571,0.935-2.369C106.9,303.307,106.704,303.361,106.596,303.545z M103.972,302.94
							c0.114-0.512,1.125-2.943,1.401-1.756c0.282,1.212-0.722,2.058-1.508,2.657C103.877,303.548,103.903,303.252,103.972,302.94z"
							/>
						<path id="XMLID_2690_" style="fill:#FAFAFA;" d="M96.537,311.146c-0.03-0.033-0.082,0.005-0.125,0.045
							c-0.201,0.186-0.386,0.441-0.585,0.635c-0.199,0.194-0.43,0.325-0.589,0.216c-0.185-0.127-0.213-0.525-0.223-0.887
							c-0.041-1.374-0.049-2.77-0.024-4.184c0.012-0.681,0.049-1.356,0.095-2.051c0.044-0.672,0.051-1.343-0.081-1.893
							c-0.033-0.138-0.26,0.035-0.277,0.201c-0.308,2.965-0.44,5.939-0.311,8.686c0.037,0.791,0.301,1.419,0.879,1.15
							c0.374-0.174,1.331-1.094,1.268-1.823C96.56,311.205,96.555,311.169,96.537,311.146z"/>
						<path id="XMLID_2691_" style="fill:#FAFAFA;" d="M98.307,310.25c-0.322,0.066-0.48,0.236-0.588-0.214
							c-0.099-0.412-0.056-1.102-0.032-1.608c0.045-0.948,0.249-2.146,0.121-2.987c-0.035-0.23-0.32,0.092-0.353,0.288
							c-0.258,1.549-0.428,3.388-0.331,4.789c0.063,0.917,0.833,1.278,1.252,0.071C98.429,310.437,98.416,310.227,98.307,310.25z"/>
						<path id="XMLID_2992_" style="fill:#FAFAFA;" d="M98.363,302.058c-0.106-0.104-0.339,0.089-0.454,0.326
							c-0.052,0.04-0.104,0.092-0.157,0.167c-0.23,0.333-0.274,0.741-0.217,1.07c0.012,0.071,0.076,0.088,0.12,0.08
							c0.249-0.043,0.525-0.335,0.677-0.755C98.436,302.664,98.505,302.197,98.363,302.058z"/>
						<path id="XMLID_2995_" style="fill:#FAFAFA;" d="M102.492,307.048c-0.021-0.944-0.024-1.9-0.028-2.85
							c-0.003-0.733,0.08-1.779-0.497-1.729c-1.122,0.098-1.707,2.474-2.074,4.526c-0.028-0.89-0.066-1.774-0.16-2.625
							c-0.035-0.314-0.364,0.055-0.378,0.336c-0.09,1.695,0.021,3.419,0.097,5.011c0.023,0.472,0.419,0.06,0.498-0.317
							c0.236-1.128,0.35-2.222,0.62-3.368c0.135-0.575,0.263-1.286,0.522-1.817c0.684-1.403,0.838-0.355,0.833,0.443
							c-0.004,0.723,0.001,1.441,0,2.162c0,0.631-0.102,1.472,0.093,1.946c0.042,0.102,0.119,0.164,0.21,0.122
							c0.115-0.053,0.217-0.255,0.258-0.444c0.041-0.189,0.035-0.368,0.029-0.542C102.506,307.619,102.499,307.334,102.492,307.048z
							"/>
					</g>
				</g>
				<g id="XMLID_4294_">
					<path id="XMLID_4318_" style="fill:#FAFAFA;" d="M107.002,316.548c-0.075-0.834-0.07-1.502-0.503-1.929
						c-0.456-0.449-0.93-0.051-1.44,0.078c0.485-1.012,1.478-2.112,1.394-3.202c-0.098-1.264-2.132,0.58-2.667,1.008
						c-0.069,0.018-0.135,0.117-0.183,0.239c-0.007,0.016-0.013,0.031-0.018,0.047c-0.062,0.183-0.069,0.372,0.038,0.363
						c0.004,0.001,0.008,0,0.012,0.001c0.006-0.001,0.008,0.003,0.014,0.001c0.012-0.005,0.024-0.011,0.036-0.016
						c0.006-0.003,0.011-0.003,0.017-0.008c0.447-0.175,0.889-0.407,1.34-0.687c0.123-0.076,0.718-0.606,0.803-0.519
						c0.143,0.146-0.332,0.963-0.359,1.017c-0.336,0.663-0.916,1.442-1.102,2.219c-0.053,0.221-0.035,0.528,0.109,0.539
						c0.233,0.018,0.475-0.191,0.679-0.178c1.119,0.072,1.264,0.376,1.331,1.679c0.068,1.323-0.362,2.59-1.194,3.423
						c-0.494,0.515-0.954,0.642-1.38,0.382c-0.353-0.271-0.256-0.88,0.293-1.827c0.161-0.174,0.243-0.673,0.029-0.604
						c-0.756,0.246-1.435,1.434-1.186,2.526c0.358,1.573,1.616,1.35,2.657,0.079C106.888,319.754,107.149,318.192,107.002,316.548z"
						/>
					<path id="XMLID_4317_" style="fill:#FAFAFA;" d="M102.225,322.741c-0.03-0.067-0.077-0.125-0.143-0.164
						c-0.266-0.158-0.776,0.229-1.006,0.365c-0.764,0.453-1.464,1.043-2.298,1.369c0.217-0.724,0.406-1.399,0.73-2.184
						c0.46-1.117,0.925-2.207,1.335-3.353c0.437-1.219,1.214-2.925,0.642-3.837c-0.552-0.88-1.718,0.312-2.092,0.77
						c-0.4,0.488-0.729,1.047-0.946,1.64c-0.077,0.211-0.28,0.474-0.285,0.7c-0.006,0.26,0.212,0.42,0.438,0.239
						c0.088-0.07,0.146-0.171,0.2-0.27c0.117-0.21,0.23-0.421,0.329-0.64c0.129-0.285,0.234-0.584,0.407-0.845
						c0.171-0.257,0.401-0.467,0.629-0.674c0.213-0.194,0.581-0.415,0.819-0.132c0.212,0.252,0.111,0.709,0.053,0.995
						c-0.183,0.897-0.581,1.74-0.91,2.589c-0.391,1.009-0.844,2.006-1.269,2.989c-0.373,0.862-0.452,1.575-0.75,2.478
						c-0.117,0.356-0.041,0.69,0.18,0.641c0.484-0.109,0.992-0.464,1.424-0.692c0.686-0.364,1.351-0.888,2.069-1.172
						c0.086-0.034,0.176-0.061,0.255-0.111C102.229,323.321,102.328,322.973,102.225,322.741z"/>
				</g>
			</g>
		</g>
	</g>
</g>
<g id="Cabinet">
	<g id="Cabinet_1_">
		<g id="XMLID_7_">
			<g id="XMLID_31_">
				<polygon id="XMLID_32_" style="fill:#263238;" points="323.558,226.746 285.526,204.789 285.525,123.232 323.557,145.189 				
					"/>
			</g>
			<polygon id="XMLID_30_" style="opacity:0.25;" points="323.557,172.438 285.526,181.592 285.526,204.789 323.558,226.746 			"/>
			<g id="XMLID_28_">
				<polygon id="XMLID_29_" style="fill:#37474F;" points="323.557,145.189 377.888,113.821 377.889,195.378 323.558,226.746 				
					"/>
			</g>
			<g id="XMLID_26_">
				<polygon id="XMLID_27_" style="fill:#455A64;" points="377.888,113.821 323.557,145.189 285.525,123.232 339.856,91.864 				"/>
			</g>
			<g id="XMLID_23_">
				<g id="XMLID_24_">
					<path id="XMLID_25_" style="fill:#263238;" d="M347.027,144.186l7.391-4.268c0.96-0.554,1.737-0.301,1.737,0.565
						c0,0.866-0.778,2.018-1.737,2.572l-7.392,4.268c-0.96,0.554-1.737,0.301-1.737-0.565
						C345.29,145.892,346.068,144.74,347.027,144.186z"/>
				</g>
			</g>
			<g id="XMLID_16_">
				<g id="XMLID_21_">
					<polygon id="XMLID_22_" style="fill:#263238;" points="327.991,186.55 371.456,161.456 372.456,162.034 371.455,191.665 
						372.454,192.242 328.989,217.336 327.99,216.758 					"/>
				</g>
				<g id="XMLID_19_">
					<polygon id="XMLID_20_" style="fill:#455A64;" points="328.991,187.128 372.456,162.034 372.454,192.242 328.989,217.336 					
						"/>
				</g>
				<g id="XMLID_17_">
					<path id="XMLID_18_" style="fill:#263238;" d="M346.028,182.411l7.391-4.268c0.959-0.554,1.737-0.301,1.737,0.565
						c0,0.866-0.778,2.018-1.738,2.572l-7.392,4.268c-0.96,0.554-1.737,0.301-1.737-0.565
						C344.29,184.116,345.068,182.965,346.028,182.411z"/>
				</g>
			</g>
			<g id="XMLID_8_">
				<g id="XMLID_14_">
					<polygon id="XMLID_15_" style="fill:#263238;" points="327.991,148.976 371.456,123.881 372.456,124.459 371.455,154.09 
						372.454,154.668 328.989,179.761 327.99,179.184 					"/>
				</g>
				<g id="XMLID_12_">
					<polygon id="XMLID_13_" style="fill:#455A64;" points="328.991,149.553 372.456,124.459 372.454,154.668 328.989,179.761 					
						"/>
				</g>
				<path id="XMLID_11_" style="opacity:0.25;" d="M323.557,174.97l17.754-10.25c0.388-0.227,0.777-0.248,1.089-0.097v-0.005
					c0,0-0.674-0.394-1.446-0.847c-0.404-0.237-0.749-0.512-1.154-0.545c-0.075-0.005-0.156,0.005-0.237,0.027
					c-0.032,0.005-0.059,0.016-0.086,0.027c-0.124,0.049-0.243,0.108-0.356,0.173l-15.565,8.986V174.97z"/>
				<g id="XMLID_9_">
					<path id="XMLID_10_" style="fill:#263238;" d="M346.028,144.836l7.391-4.268c0.959-0.554,1.737-0.301,1.737,0.565
						c0,0.866-0.778,2.018-1.738,2.572l-7.392,4.268c-0.96,0.554-1.737,0.301-1.737-0.565
						C344.29,146.542,345.068,145.39,346.028,144.836z"/>
				</g>
			</g>
		</g>
	</g>
</g>
<g id="Folder">
	<g id="XMLID_33_">
		<g id="XMLID_45_">
			<path id="XMLID_51_" style="fill:#27DEBF;" d="M357.918,219.529l-67.602,39.028l-4.104,2.37c-0.065,0.036-0.131,0.071-0.19,0.101
				c-0.113,0.053-0.226,0.101-0.344,0.137c-0.137,0.053-0.285,0.095-0.428,0.119c-0.095,0.024-0.19,0.036-0.285,0.047
				c-0.018,0.006-0.042,0.012-0.059,0.006c-0.119,0.018-0.243,0.024-0.362,0.024c-0.416,0.006-0.796-0.077-1.081-0.238
				c-0.665-0.386-1.354-1.479-1.538-2.447l-11.392-59.18c-0.024-0.125-0.036-0.261-0.036-0.392c0-0.107,0.006-0.214,0.024-0.321
				c0-0.006,0-0.006,0-0.012c0.024-0.16,0.059-0.327,0.113-0.481c0.053-0.16,0.125-0.315,0.202-0.463
				c0.048-0.095,0.107-0.19,0.166-0.279c0.071-0.101,0.148-0.196,0.232-0.285c0.071-0.083,0.154-0.16,0.237-0.226
				c0.083-0.071,0.178-0.131,0.267-0.184l71.707-41.398c0.059-0.036,0.125-0.071,0.19-0.101c0.065-0.03,0.131-0.065,0.202-0.089
				c0.03-0.012,0.059-0.024,0.095-0.03c0.089-0.024,0.178-0.036,0.261-0.03c0.445,0.036,0.826,0.339,1.271,0.6
				c0.849,0.499,1.592,0.932,1.592,0.932v0.006c0.119,0.047,0.226,0.125,0.321,0.226c0.125,0.131,0.226,0.297,0.291,0.493
				c0.03,0.083,0.048,0.166,0.065,0.243l11.392,59.18C359.307,217.855,358.767,219.036,357.918,219.529z"/>
			<path id="XMLID_50_" style="fill:#27DEBF;" d="M357.918,219.529l-67.602,39.028l-4.104,2.37c-0.065,0.036-0.131,0.071-0.19,0.101
				c-0.113,0.053-0.226,0.101-0.344,0.137c-0.137,0.053-0.285,0.095-0.428,0.119c-0.095,0.024-0.19,0.036-0.285,0.047
				c-0.018,0.006-0.042,0.012-0.059,0.006c-0.119,0.018-0.243,0.024-0.362,0.024c-0.416,0.006-0.796-0.077-1.081-0.238
				c-0.665-0.386-1.354-1.479-1.538-2.447l-11.392-59.18c-0.024-0.125-0.036-0.261-0.036-0.392c0-0.107,0.006-0.214,0.024-0.321
				c0-0.006,0-0.006,0-0.012c0.024-0.16,0.059-0.327,0.113-0.481c0.053-0.16,0.125-0.315,0.202-0.463
				c0.048-0.095,0.107-0.19,0.166-0.279c0.071-0.101,0.148-0.196,0.232-0.285c0.071-0.083,0.154-0.16,0.237-0.226
				c0.083-0.071,0.178-0.131,0.267-0.184l71.707-41.398c0.059-0.036,0.125-0.071,0.19-0.101c0.065-0.03,0.131-0.065,0.202-0.089
				c0.03-0.012,0.059-0.024,0.095-0.03c0.089-0.024,0.178-0.036,0.261-0.03c0.445,0.036,0.826,0.339,1.271,0.6
				c0.849,0.499,1.592,0.932,1.592,0.932v0.006c0.119,0.047,0.226,0.125,0.321,0.226c0.125,0.131,0.226,0.297,0.291,0.493
				c0.03,0.083,0.048,0.166,0.065,0.243l11.392,59.18C359.307,217.855,358.767,219.036,357.918,219.529z"/>
			<path id="XMLID_49_" style="opacity:0.45;" d="M286.021,261.028c-0.837,0.404-1.936,0.451-2.56,0.095
				c-0.665-0.386-1.354-1.479-1.538-2.447l-11.392-59.18c-0.101-0.54,0.024-1.152,0.303-1.669l2.411,1.39
				c-0.279,0.517-0.404,1.128-0.303,1.669l11.392,59.186C284.506,260.963,285.237,261.361,286.021,261.028z"/>
			<path id="XMLID_48_" style="opacity:0.25;" d="M345.463,155.805c0.849,0.499,1.592,0.932,1.592,0.932v0.006
				c-0.345-0.166-0.772-0.143-1.2,0.107l-71.707,41.398c-0.374,0.214-0.683,0.564-0.903,0.968l-2.411-1.39
				c0.048-0.095,0.107-0.19,0.166-0.279c0.071-0.101,0.148-0.196,0.232-0.285c0.148-0.16,0.321-0.303,0.505-0.41l71.707-41.398
				c0.125-0.071,0.255-0.137,0.392-0.19c0.03-0.012,0.059-0.024,0.095-0.03c0.089-0.024,0.178-0.036,0.261-0.03
				C344.637,155.241,345.017,155.544,345.463,155.805z"/>
			<path id="XMLID_47_" style="fill:#27DEBF;" d="M284.333,260.07l-11.39-59.182c-0.186-0.966,0.354-2.149,1.206-2.641
				l71.705-41.399c0.852-0.492,1.694-0.108,1.88,0.859l11.389,59.182c0.186,0.966-0.354,2.149-1.206,2.641l-71.704,41.399
				C285.361,261.421,284.519,261.036,284.333,260.07z"/>
			<path id="XMLID_46_" style="opacity:0.35;" d="M284.333,260.07l-11.39-59.182c-0.186-0.966,0.354-2.149,1.206-2.641
				l71.705-41.399c0.852-0.492,1.694-0.108,1.88,0.859l11.389,59.182c0.186,0.966-0.354,2.149-1.206,2.641l-71.704,41.399
				C285.361,261.421,284.519,261.036,284.333,260.07z"/>
		</g>
		<g id="XMLID_41_">
			<path id="XMLID_44_" style="fill:#E0E0E0;" d="M288.407,246.557c-0.603,0.29-1.393,0.325-1.842,0.068
				c-0.478-0.278-0.974-1.064-1.107-1.76l-8.195-42.574c-0.073-0.389,0.017-0.829,0.218-1.201l1.735,1
				c-0.201,0.372-0.29,0.812-0.218,1.201l8.195,42.578C287.317,246.51,287.843,246.796,288.407,246.557z"/>
			<path id="XMLID_43_" style="fill:#FAFAFA;" d="M344.974,162.873c0.611,0.359,1.145,0.671,1.145,0.671v0.004
				c-0.248-0.12-0.555-0.103-0.863,0.077l-65.391,37.768c-0.269,0.154-0.491,0.406-0.65,0.696l-1.735-1
				c0.034-0.068,0.077-0.137,0.12-0.201c0.051-0.073,0.107-0.141,0.167-0.205c0.107-0.115,0.231-0.218,0.363-0.295l65.391-37.768
				c0.09-0.051,0.184-0.098,0.282-0.137c0.021-0.008,0.043-0.017,0.068-0.021c0.064-0.017,0.128-0.026,0.188-0.021
				C344.38,162.467,344.654,162.685,344.974,162.873z"/>
			<path id="XMLID_42_" style="fill:#F5F5F5;" d="M287.192,245.867l-8.194-42.576c-0.134-0.695,0.255-1.546,0.868-1.9l65.39-37.769
				c0.613-0.354,1.218-0.077,1.352,0.618l8.194,42.575c0.134,0.695-0.255,1.546-0.868,1.9l-65.389,37.769
				C287.932,246.839,287.326,246.563,287.192,245.867z"/>
		</g>
		<g id="XMLID_34_">
			<path id="XMLID_40_" style="fill:#27DEBF;" d="M360.816,163.22c0-0.493-0.169-0.841-0.441-1.016c0,0-0.039-0.033-0.114-0.066
				l-2.324-1.357c0,0-0.002-0.001-0.003-0.001l-0.005-0.003v0.001c-0.291-0.164-0.689-0.139-1.13,0.115l-46.475,26.8l-1.353-5.457
				c-0.124-0.412-0.368-0.71-0.671-0.889l0.009-0.004l-2.419-1.405l0.001,0.01c-0.42-0.248-0.956-0.26-1.472,0.038l-19.772,11.413
				c-0.888,0.512-1.608,1.759-1.608,2.784l0.002,65.933c0,0.492,0.162,0.842,0.432,1.018l0,0l2.489,1.443l0,0
				c0.287,0.144,0.67,0.112,1.094-0.133l72.18-41.673c0.888-0.512,1.608-1.759,1.608-2.784L360.816,163.22z"/>
			<path id="XMLID_39_" style="opacity:0.1;" d="M308.267,181.321c-0.416-0.23-0.936-0.223-1.44,0.067l-19.771,11.411
				c-0.438,0.26-0.839,0.698-1.136,1.203l-2.409-1.403c0.29-0.505,0.691-0.95,1.136-1.203l19.771-11.411
				c0.52-0.297,1.054-0.282,1.47-0.037v-0.007L308.267,181.321z"/>
			<path id="XMLID_38_" style="opacity:0.1;" d="M360.261,162.138c-0.282-0.119-0.653-0.074-1.054,0.156l-46.52,26.839
				c-0.891,0.512-1.849,0.134-2.146-0.854l-0.216-0.587l46.474-26.802c0.253-0.148,0.498-0.215,0.713-0.215
				c0.156,0,0.297,0.037,0.416,0.104h0.007L360.261,162.138z"/>
			<path id="XMLID_37_" style="fill:#27DEBF;" d="M360.815,163.224l0.029,54.765c0,1.027-0.719,2.275-1.61,2.785l-72.364,41.778
				c-0.632,0.365-1.422-0.091-1.422-0.821v-66.146c0-0.511,0.178-1.081,0.469-1.58c0.297-0.505,0.701-0.944,1.134-1.2l19.772-11.416
				c0.505-0.285,1.027-0.297,1.443-0.065l0.042,0.024h-0.012c0.303,0.178,0.546,0.475,0.671,0.891l1.355,5.455l0.214,0.588
				c0.297,0.986,1.253,1.366,2.144,0.855l46.523-26.84c0.398-0.232,0.772-0.273,1.051-0.154l0.065,0.036
				c0.012,0.006,0.024,0.012,0.036,0.018l0.018,0.012C360.643,162.38,360.815,162.731,360.815,163.224z"/>
			<path id="XMLID_36_" style="opacity:0.2;" d="M360.815,163.224l0.029,54.765c0,1.027-0.719,2.275-1.61,2.785l-72.364,41.778
				c-0.632,0.365-1.422-0.091-1.422-0.821v-66.146c0-0.511,0.178-1.081,0.469-1.58c0.297-0.505,0.701-0.944,1.134-1.2l19.772-11.416
				c0.505-0.285,1.027-0.297,1.443-0.065l0.042,0.024h-0.012c0.303,0.178,0.546,0.475,0.671,0.891l1.355,5.455l0.214,0.588
				c0.297,0.986,1.253,1.366,2.144,0.855l46.523-26.84c0.398-0.232,0.772-0.273,1.051-0.154l0.065,0.036
				c0.012,0.006,0.024,0.012,0.036,0.018l0.018,0.012C360.643,162.38,360.815,162.731,360.815,163.224z"/>
			<path id="XMLID_35_" style="opacity:0.45;" d="M286.033,262.602c-0.024-0.006-0.048-0.012-0.071-0.024l-2.489-1.443
				c-0.267-0.178-0.434-0.529-0.434-1.022V194.18c0-0.517,0.184-1.075,0.475-1.58l2.405,1.402v0.006
				c-0.291,0.499-0.469,1.069-0.469,1.58v66.141C285.451,262.139,285.7,262.465,286.033,262.602z"/>
		</g>
	</g>
</g>
<g id="Marker">
	<g id="XMLID_4160_">
		<g id="XMLID_4687_">
			<path id="XMLID_4691_" style="fill:#F0F0F0;" d="M230.033,312.292c0-2.02-0.709-4.259-1.856-6.244
				c-1.146-1.984-2.729-3.715-4.476-4.724c-1.728-0.998-3.294-1.1-4.436-0.463l-0.002-0.003l-0.037,0.021
				c-0.002,0.001-0.005,0.003-0.007,0.004l-63.496,36.677l8.998,15.485l63.456-36.652c0,0,0.001-0.001,0.001-0.001l0.005-0.003l0,0
				C229.327,315.726,230.033,314.309,230.033,312.292z"/>
			<path id="XMLID_4169_" style="fill:#F5F5F5;" d="M228.177,306.048c-1.146-1.984-2.729-3.715-4.476-4.724
				c-1.728-0.998-3.294-1.1-4.436-0.463l-0.002-0.003l-0.037,0.021c-0.002,0.001-0.005,0.003-0.007,0.004l-63.496,36.677
				l4.499,7.743l67.963-39.238C228.183,306.059,228.18,306.053,228.177,306.048z"/>
			<path id="XMLID_4191_" style="fill:#FAFAFA;" d="M158.502,342.342l67.635-39.049c-0.75-0.795-1.573-1.471-2.437-1.969
				c-0.178-0.103-0.352-0.19-0.527-0.274l-66.392,38.331L158.502,342.342z"/>
			<path id="XMLID_4668_" style="fill:#E0E0E0;" d="M160.219,337.992c1.748,1.009,3.33,2.741,4.476,4.724
				c1.147,1.986,1.856,4.224,1.856,6.245c0,4.039-2.835,5.676-6.333,3.656c-1.748-1.009-3.33-2.74-4.476-4.724
				c-1.147-1.986-1.857-4.224-1.857-6.245C153.886,337.61,156.721,335.973,160.219,337.992z"/>
			<path id="XMLID_4158_" style="fill:#E0E0E0;" d="M223.124,319.309c1.143-0.663,1.85-2.08,1.85-4.096
				c0-2.02-0.709-4.259-1.856-6.245c-1.146-1.984-2.729-3.715-4.476-4.724c-1.728-0.998-3.294-1.1-4.436-0.463l1.801-1.046
				c1.143-0.637,2.708-0.535,4.436,0.463c1.748,1.009,3.33,2.741,4.476,4.724c1.147,1.986,1.856,4.224,1.856,6.244
				c0,2.016-0.707,3.434-1.85,4.096L223.124,319.309z"/>
		</g>
		<g id="XMLID_4159_">
			<path id="XMLID_4689_" style="fill:#27DEBF;" d="M167.067,349.259c0-4.367-3.066-9.678-6.848-11.862
				c-1.891-1.092-3.603-1.195-4.842-0.48l-24.01,13.864l9.77,16.724l23.922-13.811C166.299,352.979,167.067,351.444,167.067,349.259
				z"/>
			<path id="XMLID_4237_" style="opacity:0.3;fill:#FFFFFF;" d="M163.031,339.729l-23.966,13.833
				c-0.851-0.944-1.804-1.745-2.815-2.327l23.966-13.841C161.227,337.976,162.171,338.785,163.031,339.729z"/>
			<path id="XMLID_4233_" style="opacity:0.05;" d="M167.069,349.255c0,2.192-0.767,3.726-2.015,4.442l-23.915,13.808l-0.009-0.009
				c1.214-0.716,1.964-2.242,1.964-4.4c0-1.677-0.455-3.49-1.222-5.218l23.965-13.842
				C166.613,345.765,167.069,347.578,167.069,349.255z"/>
			<path id="XMLID_4667_" style="fill:#27DEBF;" d="M136.25,351.236c3.782,2.184,6.848,7.494,6.848,11.862s-3.066,6.138-6.848,3.954
				c-3.782-2.184-6.848-7.494-6.849-11.862C129.402,350.822,132.468,349.052,136.25,351.236z"/>
			<path id="XMLID_4669_" style="opacity:0.1;" d="M136.25,351.236c3.782,2.184,6.848,7.494,6.848,11.862s-3.066,6.138-6.848,3.954
				c-3.782-2.184-6.848-7.494-6.849-11.862C129.402,350.822,132.468,349.052,136.25,351.236z"/>
			<path id="XMLID_4700_" style="opacity:0.2;" d="M136.25,354.043c-2.436-1.399-4.417-0.261-4.417,2.554
				c0,2.815,1.981,6.238,4.417,7.646c2.436,1.408,4.417,0.261,4.417-2.554C140.667,358.873,138.686,355.451,136.25,354.043z
				 M136.25,362.709c-1.703-0.978-3.094-3.38-3.094-5.353c0-1.964,1.391-2.765,3.094-1.779c1.711,0.986,3.094,3.38,3.094,5.353
				C139.344,362.903,137.961,363.695,136.25,362.709z"/>
		</g>
		<g id="XMLID_4167_">
			<polygon id="XMLID_4165_" style="fill:#27DEBF;" points="148.235,356.178 146.523,357.167 148.235,358.152 149.948,357.167 			
				"/>
			<path id="XMLID_4163_" style="fill:#27DEBF;" d="M169.857,348.398l-1.713-0.991c-0.393-0.23-0.937-0.201-1.54,0.141
				c-0.008,0-0.008,0.008-0.017,0.008l-18.351,10.596v5.935l18.351-10.596c1.214-0.7,2.192-2.402,2.192-3.793v-0.222l0.198,0.124
				L169.857,348.398z"/>
			<path id="XMLID_4204_" style="fill:#27DEBF;" d="M170.491,349.811v0.877c0,1.391-0.978,3.094-2.192,3.793l-18.351,10.596v-5.935
				l18.351-10.596c0.009,0,0.009-0.008,0.017-0.008C169.522,347.856,170.491,348.42,170.491,349.811z"/>
			<path id="XMLID_4161_" style="opacity:0.05;" d="M170.491,349.811v0.877c0,1.391-0.978,3.094-2.192,3.793l-18.351,10.596v-5.935
				l18.351-10.596c0.009,0,0.009-0.008,0.017-0.008C169.522,347.856,170.491,348.42,170.491,349.811z"/>
			<g id="XMLID_4166_">
				<polygon id="XMLID_4157_" style="fill:#27DEBF;" points="146.523,363.099 146.523,357.167 149.944,359.145 149.947,365.076 				
					"/>
				<polygon id="XMLID_4162_" style="opacity:0.1;" points="146.523,363.099 146.523,357.167 149.944,359.145 149.947,365.076 				
					"/>
			</g>
		</g>
	</g>
</g>
<g id="Character_2">
	<g id="XMLID_4193_">
		<g id="XMLID_4234_">
			<g id="XMLID_4330_">
				<g id="Character_boy_1_">
					<g id="XMLID_4501_">
						<g id="XMLID_4503_">
							<path id="XMLID_4504_" style="fill:#B16668;" d="M382.201,261.432c-0.967,1.011-3.264,1.795-18.126,2.878
								c-2.17,0.158-4.324-0.018-6.38-0.836c-1.987-0.791-3.749-2.166-4.945-3.944c-0.27-0.401-0.516-0.829-0.626-1.301
								c-0.11-0.471-0.069-0.995,0.199-1.397c0.266-0.398,0.72-0.633,1.182-0.76c0.975-0.269,1.873-0.054,2.789,0.299
								c1.376,0.53,2.42,0.714,2.318,0.437c-0.102-0.277-0.932-0.532-1.785-1.494c-0.815-0.919-1.067-2.306-0.516-2.722
								c0.551-0.417,0.455-0.327,1.44,0.487c0.985,0.814,2.111,1.231,3.406,2.488c1.141,1.107,1.631,1.544,3.008,2.089
								c1.493,0.592,2.899,0.417,7.041-0.246c3.578-0.572,4.948-0.775,6.666-1.731c1.847-2.807,6.298-14.658,8.234-17.909
								c2.046-3.437,6.2-3.544,6.2-3.544s0.109,6.169-2.098,12.452C388.778,250.751,383.161,260.428,382.201,261.432z"/>
						</g>
						<path id="XMLID_4502_" style="fill:#27DEBF;" d="M393.432,233.878c0,0-2.731-0.542-4.982,0.877
							c-2.252,1.418-3.721,4.041-5.15,7.321c-1.74,3.992-3.84,9.326-3.84,9.326s2.612,2.911,7.494,3.393l6.709-11.144
							L393.432,233.878z"/>
					</g>
					<g id="Character_boy_2_">
						<g id="XMLID_4331_">
							<rect id="XMLID_4500_" x="403.502" y="351.852" style="fill:#B16668;" width="5.789" height="9.91"/>
							<polygon id="XMLID_4459_" style="fill:#B16668;" points="393.272,354.347 387.487,354.546 387.197,344.059 393.272,343.86 
															"/>
							<path id="XMLID_4457_" style="fill:#27DEBF;" d="M411.756,277.857c0,5.528-0.977,37.68-0.977,37.68
								c0.135,1.591,1.666,4.419,1.785,10.148c0.173,8.309-3.026,31.121-3.026,31.121s-2.81,1.642-6.445,0.127
								c0,0-2.625-30.924-3.663-39.148c-0.905-7.177-2.441-26.676-2.441-26.676l-2.726,23.431c0,0,1.067,4.281,0.717,9.2
								c-0.271,3.804-1.342,27.358-1.342,27.358s-2.725,1.849-6.684,0.511c0,0-4.083-33.579-4.15-37.069
								c-0.076-3.979,1.513-44.598,1.513-44.598L411.756,277.857z"/>
							<path id="XMLID_4505_" style="opacity:0.5;" d="M411.756,277.857c0,5.528-0.977,37.68-0.977,37.68
								c0.135,1.591,1.666,4.419,1.785,10.148c0.173,8.309-3.026,31.121-3.026,31.121s-2.81,1.642-6.445,0.127
								c0,0-2.625-30.924-3.663-39.148c-0.905-7.177-2.441-26.676-2.441-26.676l-2.726,23.431c0,0,1.067,4.281,0.717,9.2
								c-0.271,3.804-1.342,27.358-1.342,27.358s-2.725,1.849-6.684,0.511c0,0-4.083-33.579-4.15-37.069
								c-0.076-3.979,1.513-44.598,1.513-44.598L411.756,277.857z"/>
							<path id="XMLID_4456_" style="fill:#263238;" d="M407.953,237.193c1.273,0.569,2.279,1.606,2.789,2.903
								c0.455,1.156,0.848,2.793,0.848,5.003v11.342l0.166,21.416c-8.308,4.379-18.871,4.672-27.735-1.801
								c0,0,0.495-27.566,0.495-32.075c0-0.204,0.005-0.41,0.016-0.619c0.322-6.441,6.663-10.86,12.909-9.254l5.246,1.35
								L407.953,237.193L407.953,237.193z"/>
							<g id="XMLID_4416_">
								<g id="XMLID_4432_">
									
										<ellipse id="XMLID_4454_" transform="matrix(0.9239 -0.3827 0.3827 0.9239 -52.7746 166.8787)" style="fill:#27DEBF;" cx="393.09" cy="216.097" rx="7.955" ry="7.955"/>
									
										<ellipse id="XMLID_5_" transform="matrix(0.9239 -0.3827 0.3827 0.9239 -52.7746 166.8787)" style="opacity:0.5;" cx="393.09" cy="216.097" rx="7.955" ry="7.955"/>
									<path id="XMLID_4453_" style="fill:#27DEBF;" d="M406.841,221.753c0,0-1.289,6.057-1.806,7.052
										c-0.517,0.995-1.585,1.278-1.585,1.278l0.09-4.26L406.841,221.753z"/>
									<path id="XMLID_6_" style="opacity:0.5;" d="M406.841,221.753c0,0-1.289,6.057-1.806,7.052
										c-0.517,0.995-1.585,1.278-1.585,1.278l0.09-4.26L406.841,221.753z"/>
									<path id="XMLID_4451_" style="fill:#27DEBF;" d="M405.223,213.077c0,0,1.388-0.238,2.471,0.869
										c1.061,1.085,0.468,4.481-0.853,7.808l-2.428,0.279L405.223,213.077z"/>
									<path id="XMLID_3_" style="opacity:0.5;" d="M405.223,213.077c0,0,1.388-0.238,2.471,0.869
										c1.061,1.085,0.468,4.481-0.853,7.808l-2.428,0.279L405.223,213.077z"/>
									<path id="XMLID_4450_" style="fill:#B16668;" d="M403.685,222.034c0.487,0.291,1.181-0.645,1.782-1.273
										c0.6-0.628,2.561-1.487,3.539,0.574c0.996,2.1-0.863,4.874-2.406,5.359c-2.66,0.835-3.059-0.871-3.059-0.871l-0.196,9.887
										l0,0c-3.307,4.239-12.483,3.881-8.66-0.547l0.008-2.92c0,0-2.41,0.366-3.585,0.184c-1.956-0.302-3.186-1.846-3.78-3.963
										c-0.953-3.401-1.315-6.146-0.506-12.834c0.886-7.33,9.412-7.406,14.016-4.509S403.685,222.034,403.685,222.034z"/>
									<path id="XMLID_4447_" style="fill:#27DEBF;" d="M403.685,222.853c0.245,0.005,1.176-1.54,1.782-2.092
										c0.84-0.764-0.243-7.684-0.243-7.684s0.807-1.72-0.81-3.5c-1.151-1.266-2.402-2.066-5.72-2.243
										c-1.943-0.104-5.049,0.201-6.794,0.319c-3.276,0.222-4.485-0.585-6.366-1.113c-1.44-0.404-1.603,4.795,2.033,6.516
										c0,0,1.184,0.764,4.299,1.143c3.116,0.379,7.968-0.073,8.632-0.164c0.903-0.124,1.096,0.752,1.583,3.144
										C402.507,219.279,402.862,222.837,403.685,222.853z"/>
									<path id="XMLID_2_" style="opacity:0.5;" d="M403.685,222.853c0.245,0.005,1.176-1.54,1.782-2.092
										c0.84-0.764-0.243-7.684-0.243-7.684s0.807-1.72-0.81-3.5c-1.151-1.266-2.402-2.066-5.72-2.243
										c-1.943-0.104-5.049,0.201-6.794,0.319c-3.276,0.222-4.485-0.585-6.366-1.113c-1.44-0.404-1.603,4.795,2.033,6.516
										c0,0,1.184,0.764,4.299,1.143c3.116,0.379,7.968-0.073,8.632-0.164c0.903-0.124,1.096,0.752,1.583,3.144
										C402.507,219.279,402.862,222.837,403.685,222.853z"/>
									<path id="XMLID_4446_" style="fill:#27DEBF;" d="M405.219,213.615l2.944-1.58c-0.418-0.844-1.416-1.174-2.229-0.737
										C405.121,211.734,404.801,212.772,405.219,213.615z"/>
									<path id="XMLID_4_" style="opacity:0.5;" d="M405.219,213.615l2.944-1.58c-0.418-0.844-1.416-1.174-2.229-0.737
										C405.121,211.734,404.801,212.772,405.219,213.615z"/>
									<path id="XMLID_4433_" style="fill:#9A4A4D;" d="M394.692,232.242c0,0,4.366-0.88,5.893-1.691
										c1.022-0.543,1.863-1.484,2.11-2.088c0,0-0.286,1.295-1.199,2.462c-1.116,1.427-6.804,2.478-6.804,2.478L394.692,232.242z"
										/>
								</g>
								<g id="XMLID_4417_">
									<path id="XMLID_4426_" style="fill:#263238;" d="M394.905,220.943c0,0.502,0.392,0.908,0.875,0.907
										c0.483-0.001,0.875-0.409,0.875-0.912c0-0.502-0.392-0.908-0.875-0.907C395.297,220.033,394.905,220.441,394.905,220.943z"
										/>
									<path id="XMLID_4424_" style="fill:#263238;" d="M395.833,217.639l1.872,1.033c0.276-0.538,0.081-1.205-0.436-1.49
										C396.751,216.897,396.109,217.102,395.833,217.639z"/>
									<path id="XMLID_4423_" style="fill:#9A4A4D;" d="M395.087,226.986l-1.997,0.749c0.198,0.572,0.805,0.869,1.357,0.662
										C394.998,228.191,395.285,227.559,395.087,226.986z"/>
									<path id="XMLID_4422_" style="fill:#263238;" d="M387.357,218.368l1.707-1.315c-0.348-0.489-1.012-0.59-1.484-0.228
										C387.108,217.189,387.009,217.879,387.357,218.368z"/>
									<path id="XMLID_4421_" style="fill:#263238;" d="M387.882,220.694c0,0.502,0.392,0.908,0.875,0.906
										c0.483-0.001,0.875-0.409,0.875-0.911c0-0.502-0.392-0.908-0.875-0.907C388.274,219.783,387.882,220.191,387.882,220.694z"
										/>
									<polygon id="XMLID_4420_" style="fill:#9A4A4D;" points="392.34,219.864 392.052,225.126 389.305,224.189 									"/>
								</g>
							</g>
							<path id="XMLID_4415_" style="fill:#263238;" d="M403.502,358.904v-0.828c-0.554,0.241-1.841,5.151-4.138,7.246
								c-1.826,1.665-4.317,3.589-4.95,5.446c-0.659,1.931,3.469,2.997,5.175,2.695c1.982-0.351,5.417-1.747,6.28-3.04
								c0.862-1.294,1.266-3.202,1.967-4.151c0.701-0.948,2.316-2.007,2.695-3.104c0.208-0.603-0.039-1.923-0.331-3.039
								c-0.268-1.023-0.559-2.149-0.909-2.053c-0.001,0.125,0,0.631,0,0.631c-0.42,0.466-1.583,0.928-2.894,0.978
								C405.549,359.718,403.495,359.55,403.502,358.904z"/>
							<path id="XMLID_4414_" style="fill:#263238;" d="M387.426,352.761c-0.301,0.01-0.545,0.435-1.208,1.152
								c-0.801,0.867-2.112,1.803-3.405,2.45c-2.168,1.085-6.382,2.754-8.289,3.613c-1.192,0.537-1.136,1.976,0.096,2.795
								c1.232,0.819,4.205,1.409,7.776,0.611c1.945-0.435,4.477-2.231,6.08-2.134c1.603,0.097,4.601,0.074,5.784-0.742
								c1.183-0.815,0.71-2.557,0.375-4.053c-0.365-1.633-0.821-4.18-1.362-4.068v0.563c-0.696,1.054-4.287,1.483-5.816,0.707
								L387.426,352.761z"/>
							<path id="XMLID_4413_" style="opacity:0.15;" d="M396.989,291.11c0,0-4.627-1.303-8.061-4.622c0,0,1.555,2.912,6.181,5.622
								l-0.617,20.461L396.989,291.11z"/>
						</g>
					</g>
				</g>
			</g>
			<g id="XMLID_4240_">
				<path id="XMLID_4241_" style="fill:#B16668;" d="M421.181,265.966c-3.712-21.725-7.515-28.329-13.734-28.556
					c-1.922,2.079-1.746,8.654,0.924,12.772c0,0,5.723,13.805,6.505,18.651c0.687,4.257,1.439,9.607,1.195,13.225
					c-0.043,0.641-0.338,1.237-0.796,1.687c-1.23,1.207-1.285,2.226-2.111,3.588c-0.647,1.066-1.315,1.444-1.142,1.699
					c0.222,0.329,0.951,0.779,1.912,0.237c0.484-0.273,0.806-0.605,1.524-1.323c0,0-0.27,1.687-1.346,3.823
					c-1.459,2.894-1.214,4.419,2.832,3.564c2.536-0.536,4.21-2.543,4.884-8.54c0.194-1.728,0.493-4.453,0.397-6.655
					C421.974,274.406,421.766,269.386,421.181,265.966z"/>
			</g>
			<g id="XMLID_4235_">
				<g id="XMLID_4236_">
					<g id="XMLID_4238_">
						<path id="XMLID_4239_" style="fill:#27DEBF;" d="M405.928,236.526c1.894,0.344,6.751,0.518,9.238,5.535
							c1.639,3.305,3.283,8.478,5.049,14.676c0,0-3.646,3.775-9.018,3.235l-3.006-8.678
							C405.336,247.605,404.629,239.303,405.928,236.526z"/>
					</g>
				</g>
			</g>
		</g>
	</g>
</g>
<g id="Character_1">
	<g id="XMLID_4758_">
		<g id="XMLID_5056_">
			<path id="XMLID_4524_" style="fill:#FFC1A7;" d="M321.17,286.544c2.33,0.122,3.463,1.676,5.827,7.537
				c2.363,5.86,6.488,15.883,5.712,18.059c-0.541,1.518-15.29,6.296-15.29,6.296l-3.726-4.948l11.113-5.016l-5.798-12.836
				L321.17,286.544z"/>
			<g id="XMLID_4522_">
				<g id="XMLID_4528_">
					<polygon id="XMLID_4168_" style="fill:#27DEBF;" points="291.549,305.462 276.395,306.518 275.875,307.208 288.869,332.791 
						303.292,330.39 					"/>
					<polygon id="XMLID_4164_" style="opacity:0.3;" points="291.549,305.462 276.395,306.518 275.875,307.208 288.869,332.791 
						303.292,330.39 					"/>
					<polygon id="XMLID_4535_" style="fill:#27DEBF;" points="292.069,304.771 276.395,306.518 289.389,332.1 303.812,329.699 					
						"/>
					<polygon id="XMLID_4534_" style="fill:#F5F5F5;" points="291.972,307.202 278.822,308.667 289.664,329.599 301.764,327.584 
											"/>
					<path id="XMLID_4533_" style="opacity:0.15;" d="M289.389,308.237c0,0-0.242-0.47-0.54-1.05
						c-0.298-0.58-1.522-0.948-2.734-0.823l-2.32,0.24c-1.212,0.125-1.953,0.697-1.654,1.277l0.54,1.05L289.389,308.237z"/>
					<g id="XMLID_4529_">
						<path id="XMLID_4532_" style="fill:#37474F;" d="M288.139,304.499c-0.185-0.362-0.738-0.6-1.236-0.532l-0.901,0.123
							c0,0-1.176-2.273-3.304-2.199c-2.127,0.074-0.967,2.606-0.967,2.606s-0.426,0.065-0.952,0.146
							c-0.526,0.081-0.822,0.433-0.662,0.786l0.29,0.64l8.075-0.898C288.481,305.171,288.324,304.861,288.139,304.499z"/>
						<path id="XMLID_4531_" style="fill:#263238;" d="M287.446,305.271c-0.759,0.052-1.046,0.118-0.587,1.012
							c0.524,1.021,0.963,1.785,0.963,1.785l-3.57,0.404c0,0-0.647-1.288-0.915-1.794c-0.268-0.506-0.633-0.869-1.201-0.805
							l-0.333-0.436l5.658-0.534L287.446,305.271z"/>
						<path id="XMLID_4530_" style="fill:#37474F;" d="M289.584,308.376c0,0-0.242-0.47-0.54-1.05
							c-0.298-0.58-1.522-0.948-2.734-0.823l-2.32,0.24c-1.212,0.125-1.953,0.697-1.654,1.277l0.54,1.05L289.584,308.376z"/>
					</g>
				</g>
			</g>
			<path id="XMLID_4520_" style="fill:#F2A38F;" d="M297.26,317.068c0,0,0.406-2.327-0.286-3.131
				c-0.693-0.804-3.567-0.684-4.978-1.311c-1.513-0.673-1.296,1.068-0.555,1.614C293.05,315.427,296.271,315.984,297.26,317.068z"/>
		</g>
		<g id="Character_14_">
			<g id="XMLID_4776_">
				<g id="XMLID_4797_">
					<g id="XMLID_4808_">
						<path id="XMLID_4809_" style="fill:#263238;" d="M306.08,413.325c0,0,0.528,1.602,0.813,3.002
							c0.226,1.113,0.551,2.974,0.161,3.811c-0.39,0.837-1.911,1.378-4.268,1.36c-1.527-0.012-3.907,1.025-5.536,1.934
							c-1.683,0.939-5.182,1.313-6.962,1.104c-2.098-0.246-4.271-1.463-4.61-2.331c-0.339-0.869-0.625-2.059,5.055-3.877
							c0.047-0.015,6.872-2.239,9.264-4.879L306.08,413.325z"/>
						<path id="XMLID_4807_" style="fill:#FFC1A7;" d="M306.08,413.482l-1.084-0.135l-5,0.102c-2.392,2.64-9.217,4.864-9.264,4.879
							c-0.323,0.103-0.624,0.204-0.909,0.304c-0.985,0.795-0.151,2.15,2.194,2.359c2.346,0.208,9.643-2.248,11.259-3.027
							C304.893,417.185,306.08,415.629,306.08,413.482z"/>
						<path id="XMLID_4806_" style="fill:#FFC1A7;" d="M306.08,411.334c0,0-0.007,1.367,0,2.147
							c0.007,0.781-0.916,1.945-3.303,1.859c-1.677-0.06-2.847-0.511-2.781-1.892v-1.991L306.08,411.334z"/>
					</g>
					<g id="XMLID_4801_">
						<path id="XMLID_4804_" style="fill:#263238;" d="M322.114,404.345c0.43,0.176,0.517,1.006,0.538,2.652
							c0.016,1.246,0.224,3.424-1.245,3.819c-1.469,0.394-3.597,0.115-4.5-1.083c-1.126-1.495-1.879-2.804-3.495-4.635
							c-1.401-1.588-2.923-3.076-3.447-5.264c-0.473-1.977-0.012-2.817,1.342-3.352c1.284-0.507,2.578-0.095,4.453,1.468
							c0.643,0.395,1.222,0.744,1.667,0.882C318.663,399.213,321.685,404.169,322.114,404.345z"/>
						<path id="XMLID_4802_" style="fill:#FFC1A7;" d="M322.155,402.823l-0.054,2.019c0,0-1.352,2.643-5.105,0
							c-0.083-0.197-0.42-4.103-0.42-4.103L322.155,402.823z"/>
						<path id="XMLID_4800_" style="fill:#FFC1A7;" d="M317.429,398.832c-0.445-0.137-1.024-0.487-1.667-0.882l0,0
							c-1.514-0.485-4.702,0.076-3.265,2.275c1.545,2.365,3.136,3.592,4.499,4.617c1.698,0.837,2.292-0.2,2.292-0.2l-0.601-4.734
							C318.199,399.349,317.752,398.932,317.429,398.832z"/>
					</g>
					<path id="XMLID_4799_" style="fill:#27DEBF;" d="M324.897,374.894c-0.746-6.62-2.184-10.449-2.184-10.449
						s1.27-8.912,2.271-17.463c2.349-20.071,0.783-20.395-2.055-27.372c0,0-25.73-3.31-26.807,7.391
						c-1.34,13.327-0.735,39.167-0.508,43.894c0.227,4.727,0.609,6.863,2.012,16.766c1.068,7.534,2.08,24.011,2.08,24.011
						c3.374,1.943,6.621-0.337,6.621-0.337s3.224-20.263,3.15-25.712c-0.091-6.654-1.744-11.936-1.744-11.936
						s2.187-21.718,2.746-25.169c0,0,0.619,6.925,0.847,11.652c0.227,4.727,1.507,9.27,2.635,18.069
						c0.979,7.633,2.606,23.569,2.606,23.569c3.374,1.944,5.73,1.061,5.73,1.061S325.643,381.514,324.897,374.894z"/>
					<path id="XMLID_4759_" style="opacity:0.1;" d="M310.48,348.517l1.401-8.956c0,0,3.798-0.264,7.951-2.766
						c0,0-1.748,2.641-6.381,3.74l-1.43,10.376l-0.576,10.866L310.48,348.517z"/>
				</g>
				<polygon id="XMLID_4796_" style="fill:#FFC1A7;" points="306.564,281.518 307.508,291.521 316.294,290.965 315.591,279.872 				
					"/>
				<g id="XMLID_4791_">
					<path id="XMLID_4793_" style="fill:#455A64;" d="M324.19,290.097c-0.893-2.649-2.713-4.198-6.733-4.243l-1.483,0.046
						c-0.282,1.475-4.609,2.671-8.886,1.161c-0.603,0.155-2.256,0.461-3.188,0.585l-2.046,0.299
						c-3.114,1.019-4.489,6.427-4.788,14.998c-0.299,8.571-1.581,26.906-1.581,26.906s6.695,3.588,17.262,2.199
						c9.457-1.242,13.135-6.836,12.809-6.121c0,0-1.443-6.802-4.883-13.737C325.652,299.957,325.515,294.028,324.19,290.097z"/>
					<path id="XMLID_4790_" style="fill:#37474F;" d="M307.51,332.364c1.614,0.019,3.363-0.069,5.236-0.315
						c8.623-1.133,12.44-5.881,12.799-6.168c-0.127-0.582-1.59-7.073-4.873-13.69c2.516-6.182,3.725-10.753,4.135-14.271
						c-0.411,2.564-4.202,12.499-9.161,15.479c0,0,2.798,0.435,5.193,3.722C323.23,320.404,321.269,331.658,307.51,332.364z"/>
				</g>
				<g id="XMLID_4777_">
					<g id="XMLID_4787_">
						<path id="XMLID_4788_" style="fill:#263238;" d="M301.969,269.095c0,0-3.319-3.956-0.717-7.81
							c3.067-4.541,8.472-6.079,15.145-4.095c3.308,0.983,8.161,5.552,8.406,11.954c0.189,4.938-13.657,8.204-13.434,11.589
							L301.969,269.095z"/>
					</g>
					<g id="XMLID_4785_">
						<path id="XMLID_4786_" style="fill:#F2A38F;" d="M300.046,270.543c0,0-1.946,2.942-1.692,3.253
							c0.254,0.311,1.491,0.642,1.491,0.642L300.046,270.543z"/>
					</g>
					<g id="XMLID_4783_">
						<path id="XMLID_4784_" style="fill:#FFC1A7;" d="M305.992,261.222c-1.892,0.977-5.16,2.783-6.001,9.751
							c-0.863,7.153,0.729,9.638,1.705,10.576c0.658,0.633,4.055,0.862,5.826,0.312c2.217-0.688,7.019-3.062,9.271-6.753
							c2.648-4.343,3.195-10.132,0.138-12.402C312.628,259.512,307.593,260.395,305.992,261.222z"/>
					</g>
					<g id="XMLID_4781_">
						<path id="XMLID_4782_" style="fill:#263238;" d="M305.433,261.521c0,0-1.648,6.525,0.327,10.649c0,0,1.156-2.546,3.345-1.816
							c2.203,0.736,2.002,3.673,0.268,5.175c-1.735,1.501-3.416,0.725-3.416,0.725s0.06,3.61,3.146,5.04
							c0,0,6.455,3.089,12.285-3.144c5.29-5.656,4.608-15.788-3.19-18.384C310.399,257.171,305.433,261.521,305.433,261.521z"/>
					</g>
					<path id="XMLID_55_" style="fill:#27DEBF;" d="M332.367,266.863c0,0-0.025,0.031-0.074,0.091
						c-0.051,0.066-0.122,0.151-0.184,0.189c-0.144,0.122-0.238,0.01-0.395-0.039c-0.303-0.125-0.736-0.303-1.256-0.517
						c-0.52-0.214-1.127-0.462-1.771-0.743c-0.645-0.28-1.337-0.568-2.019-0.879c-0.204-0.098,0.053-0.763,0.277-0.688
						c0.708,0.25,1.406,0.522,2.064,0.768c0.659,0.244,1.269,0.486,1.791,0.693c0.523,0.206,0.959,0.378,1.264,0.499
						c0.147,0.073,0.292,0.058,0.311,0.246c0.019,0.071,0.011,0.181,0.002,0.264C332.37,266.823,332.367,266.863,332.367,266.863z"
						/>
					<path id="XMLID_52_" style="fill:#27DEBF;" d="M332.363,258.511c0,0,0.004,0.04,0.012,0.116c0.01,0.083,0.02,0.193,0.002,0.264
						c-0.016,0.188-0.161,0.175-0.308,0.25c-0.303,0.125-0.736,0.303-1.256,0.517c-0.52,0.214-1.125,0.466-1.781,0.72
						c-0.655,0.256-1.349,0.538-2.053,0.798c-0.214,0.074-0.5-0.579-0.287-0.684c0.678-0.321,1.366-0.619,2.006-0.908
						c0.64-0.291,1.243-0.548,1.76-0.769c0.516-0.222,0.947-0.406,1.248-0.536c0.156-0.052,0.249-0.164,0.394-0.045
						c0.063,0.037,0.135,0.121,0.187,0.186C332.337,258.48,332.363,258.511,332.363,258.511z"/>
					<path id="XMLID_4523_" style="fill:#263238;" d="M329.144,261.835c0,3.794-3.076,6.87-6.87,6.87c-3.794,0-6.87-3.076-6.87-6.87
						c0-3.794,3.076-6.87,6.87-6.87C326.068,254.965,329.144,258.041,329.144,261.835z"/>
					<path id="XMLID_4779_" style="fill:#263238;" d="M300.413,258.588c-2.904,2.955-3.069,11.485,5.347,13.582l5.507-15.104
						C308.06,254.982,303.004,255.95,300.413,258.588z"/>
					<path id="XMLID_4778_" style="fill:#263238;" d="M304.911,274.507c-0.864-0.312-1.312-1.266-1-2.13
						c0.312-0.864,1.266-1.312,2.13-0.999L304.911,274.507z"/>
					<path id="XMLID_53_" style="fill:#27DEBF;" d="M313.612,258.511c0,0-0.004,0.04-0.012,0.116
						c-0.01,0.083-0.02,0.193-0.002,0.264c0.016,0.188,0.161,0.175,0.308,0.25c0.303,0.125,0.736,0.303,1.256,0.517
						c0.52,0.214,1.125,0.466,1.781,0.72c0.655,0.256,1.349,0.538,2.053,0.798c0.214,0.074,0.5-0.579,0.287-0.684
						c-0.678-0.321-1.366-0.619-2.006-0.908c-0.64-0.291-1.243-0.548-1.76-0.769c-0.517-0.222-0.947-0.406-1.248-0.536
						c-0.156-0.052-0.248-0.164-0.394-0.045c-0.063,0.037-0.135,0.121-0.187,0.186C313.638,258.48,313.612,258.511,313.612,258.511z
						"/>
					<path id="XMLID_54_" style="fill:#27DEBF;" d="M313.608,266.863c0,0,0.025,0.031,0.074,0.091
						c0.051,0.066,0.122,0.151,0.184,0.189c0.144,0.122,0.238,0.01,0.395-0.039c0.303-0.125,0.736-0.303,1.256-0.517
						c0.52-0.214,1.127-0.462,1.771-0.743c0.645-0.28,1.337-0.568,2.019-0.879c0.204-0.098-0.053-0.763-0.277-0.688
						c-0.708,0.25-1.406,0.522-2.064,0.768c-0.659,0.244-1.269,0.486-1.791,0.693c-0.523,0.206-0.959,0.378-1.264,0.499
						c-0.147,0.073-0.292,0.058-0.311,0.246c-0.019,0.071-0.011,0.181-0.002,0.264C313.605,266.823,313.608,266.863,313.608,266.863
						z"/>
				</g>
			</g>
			<g id="XMLID_4518_">
				<path id="XMLID_4521_" style="fill:#FFC1A7;" d="M302.5,287.852c0,0-1.378-0.191-6.535,1.185
					c-5.158,1.376-17.31,4.168-17.31,4.168s-14.28-6.876-14.902-7.625c-0.621-0.749-0.272-2.264-0.101-3.098
					c0.171-0.833,0.454-2.685,0.639-3.206c0.325-0.908-1.019-0.663-1.811,0.186c-0.81,0.869-1.143,2.508-1.539,2.794
					c-0.395,0.285-3.399-3.17-4.857-4.837c-1.458-1.668-2.142-2.834-3.119-2.146c-0.704,0.496-0.252,1.486,0.793,2.914
					c1.045,1.428,1.198,1.582,1.35,1.892c0.125,0.255-0.26,0.46-0.413,0.597c-0.283,0.253-0.786,0.668-0.821,1.064
					c-0.019,0.216,0.02,0.439-0.04,0.647c-0.136,0.475-0.725,0.698-0.891,1.164c-0.12,0.337,0.012,0.714-0.055,1.066
					c-0.044,0.226-0.169,0.431-0.209,0.658c-0.08,0.445,0.176,0.88,0.467,1.227c1.024,1.218,2.425,1.685,3.767,2.428
					c1.116,0.618,2.269,0.888,3.554,1.459c1.285,0.571,16.168,11.181,18.853,10.946c3.028-0.266,21.502-3.571,21.502-3.571
					C305.674,294.461,302.5,287.852,302.5,287.852z"/>
			</g>
		</g>
	</g>
</g>
</svg>
