<?xml version="1.0" encoding="UTF-8"?>
<!DOCTYPE svg PUBLIC "-//W3C//DTD SVG 1.1//EN" "http://www.w3.org/Graphics/SVG/1.1/DTD/svg11.dtd">
<!-- Creator: CorelDRAW 2021 (64-Bit) -->
<svg xmlns="http://www.w3.org/2000/svg" xml:space="preserve" width="43.3578mm" height="43.3578mm" version="1.1" style="shape-rendering:geometricPrecision; text-rendering:geometricPrecision; image-rendering:optimizeQuality; fill-rule:evenodd; clip-rule:evenodd"
viewBox="0 0 4335.78 4335.78"
 xmlns:xlink="http://www.w3.org/1999/xlink"
 xmlns:xodm="http://www.corel.com/coreldraw/odm/2003">
 <defs>
  <style type="text/css">
   <![CDATA[
    .fil0 {fill:none}
    .fil1 {fill:#2ABBF9}
    .fil2 {fill:#FC8287}
    .fil3 {fill:#2ABBF9;fill-rule:nonzero}
    .fil5 {fill:#2B6283;fill-rule:nonzero}
    .fil4 {fill:white;fill-rule:nonzero}
   ]]>
  </style>
 </defs>
 <g id="Layer_x0020_1">
  <metadata id="CorelCorpID_0Corel-Layer"/>
  <rect class="fil0" x="-8.04" y="8.03" width="4335.78" height="4335.78"/>
  <g id="_1874683235824">
   <path class="fil1" d="M351.46 1058.76l3616.78 0 0 2590.66c0,326.29 -266.97,593.24 -593.26,593.24l-3023.52 0 0 -3183.9z"/>
   <path class="fil2" d="M868.13 367.55l3100.11 0 0 516.67 -3616.78 0 0 0c0,-284.17 232.51,-516.67 516.67,-516.67z"/>
   <polygon class="fil3" points="1126.49,109.2 1126.49,367.55 997.32,625.89 868.15,367.55 868.15,109.2 "/>
   <polygon class="fil3" points="1901.51,109.2 1901.51,367.55 1772.34,625.89 1643.17,367.55 1643.17,109.2 "/>
   <polygon class="fil3" points="2676.53,109.2 2676.53,367.55 2547.36,625.89 2418.19,367.55 2418.19,109.2 "/>
   <polygon class="fil3" points="3451.55,109.2 3451.55,367.55 3322.38,625.89 3193.21,367.55 3193.21,109.2 "/>
   <polygon class="fil4" points="1643.17,367.54 1901.51,367.54 1901.51,625.88 1643.17,625.88 "/>
   <polygon class="fil4" points="2418.19,367.54 2676.53,367.54 2676.53,625.88 2418.19,625.88 "/>
   <polygon class="fil4" points="3193.21,367.54 3451.55,367.54 3451.55,625.88 3193.21,625.88 "/>
   <polygon class="fil4" points="2676.53,2434.27 3193.21,2434.27 3193.21,2692.61 2676.53,2692.61 "/>
   <polygon class="fil4" points="2676.53,1917.59 3193.21,1917.59 3193.21,2175.93 2676.53,2175.93 "/>
   <polygon class="fil4" points="1901.51,2434.27 2418.19,2434.27 2418.19,2692.61 1901.51,2692.61 "/>
   <polygon class="fil4" points="1126.49,2434.27 1643.17,2434.27 1643.17,2692.61 1126.49,2692.61 "/>
   <polygon class="fil4" points="2676.53,2950.95 3193.21,2950.95 3193.21,3209.29 2676.53,3209.29 "/>
   <polygon class="fil4" points="1901.51,2950.95 2418.19,2950.95 2418.19,3209.29 1901.51,3209.29 "/>
   <polygon class="fil4" points="1126.49,2950.95 1643.17,2950.95 1643.17,3209.29 1126.49,3209.29 "/>
   <polygon class="fil4" points="1901.51,3467.63 2418.19,3467.63 2418.19,3725.98 1901.51,3725.98 "/>
   <polygon class="fil4" points="1126.49,3467.63 1643.17,3467.63 1643.17,3725.98 1126.49,3725.98 "/>
   <polygon class="fil4" points="1940.23,1400.9 1530.58,1810.56 1347.91,1627.87 1165.24,1810.56 1530.6,2175.92 2122.91,1583.58 "/>
   <polygon class="fil5" points="351.46,884.23 3968.24,884.23 3968.24,1142.57 351.46,1142.57 "/>
   <polygon class="fil4" points="868.15,367.54 1126.49,367.54 1126.49,625.88 868.15,625.88 "/>
  </g>
 </g>
</svg>
