<?xml version="1.0" encoding="UTF-8"?>
<!DOCTYPE svg PUBLIC "-//W3C//DTD SVG 1.1//EN" "http://www.w3.org/Graphics/SVG/1.1/DTD/svg11.dtd">
<!-- Creator: CorelDRAW 2021 (64-Bit) -->
<svg xmlns="http://www.w3.org/2000/svg" xml:space="preserve" width="43.3578mm" height="43.3578mm" version="1.1" style="shape-rendering:geometricPrecision; text-rendering:geometricPrecision; image-rendering:optimizeQuality; fill-rule:evenodd; clip-rule:evenodd"
viewBox="0 0 4335.78 4335.78"
 xmlns:xlink="http://www.w3.org/1999/xlink"
 xmlns:xodm="http://www.corel.com/coreldraw/odm/2003">
 <defs>
  <style type="text/css">
   <![CDATA[
    .fil0 {fill:none}
    .fil1 {fill:#28BAF9}
    .fil5 {fill:#136D64;fill-rule:nonzero}
    .fil4 {fill:#25D5BE;fill-rule:nonzero}
    .fil3 {fill:#405895;fill-rule:nonzero}
    .fil2 {fill:white;fill-rule:nonzero}
   ]]>
  </style>
 </defs>
 <g id="Layer_x0020_1">
  <metadata id="CorelCorpID_0Corel-Layer"/>
  <rect class="fil0" x="-8.04" y="8.03" width="4335.78" height="4335.78"/>
  <g id="_1873266640896">
   <path class="fil1" d="M943.91 108.58l1730.89 0 0.51 516.84 516.85 -0.54 0 3026.77c0,325.4 -266.23,591.64 -591.63,591.64l-2248.25 0 0 -3543.08c0,-325.39 266.24,-591.63 591.63,-591.63z"/>
   <polygon class="fil2" points="1438.15,533.03 1438.15,699.07 1272.12,699.07 1272.12,865.11 1438.15,865.11 1438.15,1031.15 1604.19,1031.15 1604.19,865.11 1770.23,865.11 1770.23,699.07 1604.19,699.07 1604.19,533.03 "/>
   <path class="fil3" d="M3192.16 625.41l-516.84 0 0 -516.83c302.34,302.34 214.49,214.48 516.83,516.83l0.01 0z"/>
   <polygon class="fil2" points="607.96,1406 940.04,1406 940.04,1738.07 607.96,1738.07 "/>
   <polygon class="fil2" points="607.96,1904.11 940.04,1904.11 940.04,2236.19 607.96,2236.19 "/>
   <polygon class="fil2" points="607.96,2402.23 940.04,2402.23 940.04,2734.31 607.96,2734.31 "/>
   <polygon class="fil2" points="1106.08,1572.04 2858.48,1572.04 2858.48,1738.07 1106.08,1738.07 "/>
   <polygon class="fil2" points="1106.08,2070.15 2858.48,2070.15 2858.48,2236.19 1106.08,2236.19 "/>
   <polygon class="fil2" points="1106.08,2568.27 2858.48,2568.27 2858.48,2734.31 1106.08,2734.31 "/>
   <path class="fil4" d="M3967.42 625.41l0 2584.2 -258.42 129.21 -258.42 -129.21 0 -2584.2c0,-142.13 116.28,-258.42 258.42,-258.42 142.13,0 258.42,116.29 258.42,258.42z"/>
   <polygon class="fil4" points="3967.42,3468.03 3709,3984.87 3450.58,3468.03 3709,3338.82 "/>
   <path class="fil2" d="M857.02 366.99c-137.82,0 -249.06,111.24 -249.06,249.06l0 415.1 166.04 0 0 -166.04 166.04 0 0 166.04 166.04 0 0 -415.1c0,-137.82 -111.24,-249.06 -249.06,-249.06zm-83.02 332.08l0 -83.02c0,-46.49 36.52,-83.02 83.02,-83.02 46.5,0 83.02,36.53 83.02,83.02l0 83.02 -166.04 0z"/>
   <polygon class="fil5" points="3450.58,3209.61 3967.42,3209.61 3967.42,3468.03 3450.58,3468.03 "/>
   <polygon class="fil2" points="607.96,2902.48 940.04,2902.48 940.04,3234.56 607.96,3234.56 "/>
   <polygon class="fil2" points="607.96,3400.6 940.04,3400.6 940.04,3732.68 607.96,3732.68 "/>
   <polygon class="fil2" points="1106.08,3068.52 2858.48,3068.52 2858.48,3234.56 1106.08,3234.56 "/>
   <polygon class="fil2" points="1106.08,3566.64 2858.48,3566.64 2858.48,3732.68 1106.08,3732.68 "/>
  </g>
 </g>
</svg>
