<?xml version="1.0" encoding="UTF-8"?>
<!DOCTYPE svg PUBLIC "-//W3C//DTD SVG 1.1//EN" "http://www.w3.org/Graphics/SVG/1.1/DTD/svg11.dtd">
<!-- Creator: CorelDRAW 2021 (64-Bit) -->
<svg xmlns="http://www.w3.org/2000/svg" xml:space="preserve" width="43.3578mm" height="43.3578mm" version="1.1" style="shape-rendering:geometricPrecision; text-rendering:geometricPrecision; image-rendering:optimizeQuality; fill-rule:evenodd; clip-rule:evenodd"
viewBox="0 0 4335.78 4335.78"
 xmlns:xlink="http://www.w3.org/1999/xlink"
 xmlns:xodm="http://www.corel.com/coreldraw/odm/2003">
 <defs>
  <style type="text/css">
   <![CDATA[
    .fil0 {fill:none}
    .fil1 {fill:#E9F1FF}
    .fil4 {fill:url(#id0)}
    .fil2 {fill:url(#id1)}
    .fil5 {fill:url(#id2)}
    .fil3 {fill:url(#id3)}
   ]]>
  </style>
  <linearGradient id="id0" gradientUnits="userSpaceOnUse" x1="3578.78" y1="4272.19" x2="3514.54" y2="3614.73">
   <stop offset="0" style="stop-opacity:1; stop-color:#2998F6"/>
   <stop offset="1" style="stop-opacity:1; stop-color:#49A8F7"/>
  </linearGradient>
  <linearGradient id="id1" gradientUnits="userSpaceOnUse" xlink:href="#id0" x1="2992.49" y1="1988.73" x2="1118.5" y2="114.74">
  </linearGradient>
  <linearGradient id="id2" gradientUnits="userSpaceOnUse" xlink:href="#id0" x1="2829.04" y1="4754.11" x2="1064.03" y2="1674.56">
  </linearGradient>
  <linearGradient id="id3" gradientUnits="userSpaceOnUse" xlink:href="#id0" x1="3580.25" y1="3659.18" x2="3516.01" y2="3001.75">
  </linearGradient>
 </defs>
 <g id="Layer_x0020_1">
  <metadata id="CorelCorpID_0Corel-Layer"/>
  <rect class="fil0" x="-8.04" y="8.03" width="4335.78" height="4335.78"/>
  <g id="_1970772963936">
   <rect class="fil1" x="867.6" y="2516.66" width="2754.54" height="1632.8" rx="547.27" ry="530.48"/>
   <path class="fil2" d="M2055.49 114.74c517.49,0 937,419.51 937,937 0,517.48 -419.51,936.99 -937,936.99 -517.48,0 -936.99,-419.51 -936.99,-936.99 0,-517.49 419.51,-937 936.99,-937zm0 320.95c340.24,0 616.05,275.81 616.05,616.05 0,340.23 -275.81,616.04 -616.05,616.04 -340.23,0 -616.05,-275.81 -616.05,-616.04 0,-340.24 275.82,-616.05 616.05,-616.05z"/>
   <rect class="fil3" x="2938.59" y="3161.65" width="1219.09" height="337.62" rx="105.03" ry="176.83"/>
   <rect class="fil4" x="2937.12" y="3774.66" width="1219.09" height="337.62" rx="105.03" ry="176.83"/>
   <path class="fil5" d="M162.01 4098.6l2.09 -760.19c0,0 -8.1,-406.17 361.84,-793.56 369.93,-387.38 868.99,-352.48 868.99,-352.48l1479.74 4.26c77.99,0.23 549.27,78.73 834.1,449.43 0,0 68.8,129.21 -35.31,205.55 -104.11,76.35 -171.78,27.76 -171.78,27.76 0,0 -45.7,-27.2 -69,-62.57 0,0 -264.57,-301.88 -654.99,-300.14l-1415.54 0c0,0 -791.3,21.27 -869.33,863.47l-2.77 682.34 0.94 30.33c0,0 -19.68,132.52 -161.39,144.33 0,0 -133.84,-1.32 -167.59,-138.53z"/>
  </g>
 </g>
</svg>
